<svg width="158" height="100" viewBox="0 0 158 100" fill="none" xmlns="http://www.w3.org/2000/svg">
<path d="M104.722 63.1794C105.058 63.459 105.377 63.7519 105.693 64.0537C105.781 64.1305 105.781 64.1305 105.87 64.2089C107.399 65.6019 108.203 67.7842 108.626 69.7488C108.642 69.8241 108.658 69.8995 108.675 69.9771C109.406 73.5451 108.91 77.6928 106.906 80.7689C106.548 81.298 106.137 81.7629 105.693 82.2197C105.636 82.2813 105.58 82.3429 105.521 82.4064C104.245 83.7576 102.28 84.6782 100.421 84.7545C99.8462 84.7682 99.2729 84.7597 98.6986 84.7455C98.5816 84.7437 98.4646 84.742 98.3441 84.7401C96.5573 84.6651 94.8722 83.7687 93.5499 82.6083C93.4753 82.5475 93.4006 82.4868 93.3237 82.4242C91.2507 80.6932 90.497 78.0657 90.0527 75.5167C90.035 75.4259 90.0174 75.335 89.9992 75.2414C89.9469 74.8729 89.9398 74.5099 89.9392 74.1385C89.9389 74.0628 89.9386 73.987 89.9382 73.909C89.9378 73.749 89.9375 73.5889 89.9375 73.4289C89.9373 73.1887 89.9356 72.9485 89.9337 72.7083C89.9292 71.4634 90.0403 70.2683 90.3684 69.0627C90.3894 68.985 90.4104 68.9072 90.432 68.8272C91.1962 66.0883 92.8315 63.9124 95.2799 62.4716C98.3131 60.8418 101.973 61.0906 104.722 63.1794ZM94.8128 64.1508C92.3593 67.4454 92.2329 72.2343 92.7811 76.133C92.8919 76.8508 93.0493 77.5409 93.2585 78.2368C93.3124 78.4201 93.3124 78.4201 93.3674 78.6071C93.9605 80.5051 94.9659 82.4265 96.7896 83.3866C97.7293 83.8594 98.506 84.0035 99.5486 84.0047C99.657 84.0071 99.7655 84.0095 99.8772 84.0119C100.628 84.0146 101.22 83.886 101.904 83.5797C102.055 83.513 102.055 83.513 102.208 83.445C103.769 82.6106 104.66 81.3065 105.304 79.6939C105.338 79.6129 105.372 79.5319 105.406 79.4484C105.613 78.9193 105.765 78.3812 105.899 77.83C105.923 77.7376 105.923 77.7376 105.946 77.6434C106.24 76.3806 106.308 75.112 106.301 73.8212C106.3 73.5868 106.301 73.3525 106.302 73.1181C106.304 71.6201 106.165 70.1635 105.814 68.7045C105.789 68.5967 105.763 68.489 105.737 68.378C105.206 66.2086 104.351 64.1875 102.388 62.9547C99.9517 61.5736 96.6712 62.0084 94.8128 64.1508Z" fill="#41372C"/>
<path d="M72.4714 61.9165C77.5686 61.9165 82.6658 61.9165 87.9174 61.9165C88.4031 65.2194 88.4031 65.2194 88.4031 65.8994C88.2428 65.8994 88.0825 65.8994 87.9174 65.8994C87.8843 65.8336 87.8513 65.7677 87.8172 65.6998C87.1237 64.3681 86.2745 63.3765 84.8088 62.888C84.0431 62.6929 83.2691 62.6703 82.4834 62.6398C82.3799 62.6355 82.2764 62.6313 82.1697 62.6269C81.9161 62.6165 81.6624 62.6064 81.4087 62.5965C81.4169 65.0446 81.4261 67.4927 81.4366 69.9407C81.4415 71.0775 81.446 72.2143 81.4497 73.351C81.4529 74.3422 81.4568 75.3334 81.4614 76.3245C81.4639 76.849 81.466 77.3735 81.4673 77.898C81.4686 78.3924 81.4707 78.8869 81.4735 79.3813C81.4744 79.562 81.475 79.7427 81.4752 79.9234C81.4089 81.8702 81.4089 81.8702 82.1859 83.5798C82.4224 83.7954 82.5603 83.8665 82.8659 83.9683C82.8659 84.0645 82.8659 84.1607 82.8659 84.2598C81.1348 84.2598 79.4036 84.2598 77.6201 84.2598C77.6201 84.1636 77.6201 84.0674 77.6201 83.9683C77.7082 83.9142 77.7964 83.8601 77.8872 83.8044C78.3772 83.4557 78.5349 83.0926 78.6495 82.5057C78.7918 81.4876 78.8156 80.4858 78.8168 79.4589C78.8177 79.274 78.8187 79.089 78.8197 78.9041C78.8224 78.4067 78.8239 77.9092 78.8251 77.4117C78.8266 76.8901 78.8292 76.3686 78.8317 75.847C78.8363 74.8613 78.8398 73.8757 78.8431 72.89C78.8468 71.7671 78.8516 70.6441 78.8565 69.5211C78.8665 67.2129 78.8752 64.9047 78.8829 62.5965C78.5024 62.6045 78.122 62.6155 77.7415 62.6269C77.6354 62.6291 77.5294 62.6313 77.4201 62.6335C75.9344 62.6819 74.6642 63.0585 73.5715 64.0947C72.8996 64.84 72.5493 65.7229 72.2771 66.6766C72.1489 66.6766 72.0207 66.6766 71.8885 66.6766C71.8775 66.1079 71.9171 65.5651 71.9914 65.0016C72.0019 64.9191 72.0125 64.8365 72.0233 64.7515C72.0456 64.5786 72.068 64.4057 72.0907 64.2328C72.1255 63.9675 72.1593 63.7021 72.1931 63.4367C72.2148 63.2682 72.2366 63.0997 72.2585 62.9312C72.2686 62.8518 72.2788 62.7723 72.2892 62.6905C72.363 62.1332 72.363 62.1332 72.4714 61.9165Z" fill="#42382D"/>
<path d="M54.4969 61.9165C59.5941 61.9165 64.6913 61.9165 69.9429 61.9165C70.0546 62.1398 70.0751 62.3161 70.1065 62.5639C70.1183 62.6562 70.1302 62.7484 70.1424 62.8435C70.1547 62.9423 70.167 63.0411 70.1797 63.143C70.1925 63.2436 70.2052 63.3442 70.2183 63.4479C70.2441 63.6515 70.2698 63.8551 70.2953 64.0588C70.327 64.3098 70.36 64.5607 70.3937 64.8115C70.4114 64.9454 70.4292 65.0794 70.4469 65.2133C70.4623 65.3284 70.4777 65.4435 70.4935 65.5621C70.5294 65.9372 70.5312 66.3 70.5258 66.6766C70.3976 66.6766 70.2693 66.6766 70.1372 66.6766C70.0771 66.5164 70.0771 66.5164 70.0158 66.3529C69.4668 64.9303 68.8034 63.7467 67.3807 63.0519C66.4829 62.6976 65.5363 62.6598 64.5818 62.6329C64.4707 62.6292 64.3597 62.6254 64.2454 62.6216C63.975 62.6125 63.7046 62.6042 63.4342 62.5965C63.4424 65.0193 63.4516 67.442 63.4622 69.8647C63.467 70.9897 63.4715 72.1148 63.4752 73.2398C63.4784 74.2207 63.4823 75.2016 63.487 76.1825C63.4894 76.7016 63.4915 77.2206 63.4928 77.7397C63.4941 78.229 63.4963 78.7183 63.4991 79.2077C63.4999 79.3865 63.5005 79.5653 63.5007 79.7442C63.4254 81.7764 63.4254 81.7764 64.2588 83.5369C64.4933 83.7422 64.692 83.8695 64.9885 83.9683C64.9885 84.0645 64.9885 84.1607 64.9885 84.2598C63.1933 84.2598 61.3981 84.2598 59.5485 84.2598C59.5485 84.1636 59.5485 84.0674 59.5485 83.9683C59.7048 83.8644 59.7048 83.8644 59.9127 83.7619C60.4097 83.4616 60.5629 83.1598 60.7142 82.6083C60.9072 81.436 60.9381 80.2695 60.9394 79.0839C60.9404 78.9028 60.9413 78.7217 60.9424 78.5406C60.945 78.0543 60.9465 77.5681 60.9478 77.0819C60.9493 76.5717 60.9519 76.0616 60.9544 75.5514C60.9589 74.5878 60.9625 73.6242 60.9657 72.6605C60.9695 71.5624 60.9743 70.4644 60.9791 69.3663C60.9891 67.1097 60.9978 64.8531 61.0056 62.5965C60.6089 62.6045 60.2123 62.6154 59.8156 62.6269C59.7049 62.6291 59.5942 62.6313 59.4801 62.6335C58.0989 62.6767 56.7817 62.9832 55.7477 63.9505C55.1371 64.6221 54.7984 65.3751 54.5296 66.2341C54.4867 66.316 54.4439 66.3979 54.3998 66.4823C54.1488 66.5464 54.1488 66.5464 53.9141 66.5794C53.9663 65.6257 54.0537 64.6831 54.1792 63.7364C54.2061 63.5334 54.232 63.3303 54.2579 63.1272C54.2748 62.9972 54.2917 62.8673 54.3087 62.7373C54.3314 62.5635 54.3314 62.5635 54.3546 62.3862C54.3998 62.1108 54.3998 62.1108 54.4969 61.9165Z" fill="#41372C"/>
<path d="M0.582868 61.9165C5.7121 61.9165 10.8413 61.9165 16.126 61.9165C16.6117 65.5109 16.6117 65.5109 16.6117 66.5794C16.4835 66.5794 16.3553 66.5794 16.2232 66.5794C16.196 66.5007 16.1688 66.4219 16.1408 66.3408C15.5789 64.7886 14.8283 63.7631 13.346 63.0071C12.4819 62.6938 11.5785 62.6586 10.6677 62.6329C10.5567 62.6292 10.4457 62.6254 10.3313 62.6216C10.0609 62.6125 9.79057 62.6042 9.52017 62.5965C9.5306 64.9973 9.54156 67.3981 9.55314 69.7988C9.5585 70.9136 9.5637 72.0284 9.56848 73.1431C9.57266 74.115 9.57716 75.0869 9.58204 76.0588C9.58462 76.5732 9.58703 77.0875 9.58905 77.6019C9.59097 78.0866 9.59332 78.5713 9.59599 79.056C9.5969 79.2334 9.59764 79.4107 9.59822 79.5881C9.5458 81.6038 9.5458 81.6038 10.1759 83.4765C10.4582 83.7353 10.7157 83.8372 11.0745 83.9683C11.0745 84.0645 11.0745 84.1607 11.0745 84.2598C9.2472 84.2598 7.41991 84.2598 5.53724 84.2598C5.53724 84.1636 5.53724 84.0674 5.53724 83.9683C5.59585 83.9434 5.65445 83.9185 5.71484 83.8928C6.14536 83.6866 6.44333 83.5188 6.64833 83.0758C7.021 81.9796 7.02412 80.9242 7.02539 79.7787C7.02629 79.591 7.02728 79.4033 7.02834 79.2155C7.03099 78.7082 7.03246 78.2009 7.03373 77.6936C7.03525 77.1625 7.03785 76.6315 7.04034 76.1004C7.04487 75.0958 7.04845 74.0912 7.05167 73.0867C7.05539 71.9425 7.06019 70.7984 7.06508 69.6543C7.0751 67.3017 7.08378 64.9491 7.09156 62.5965C6.6555 62.6071 6.21952 62.6197 5.78352 62.6326C5.66076 62.6355 5.53799 62.6385 5.41151 62.6415C3.91861 62.688 2.71034 63.0607 1.64615 64.1634C1.036 64.8953 0.678142 65.7495 0.485723 66.6766C0.325434 66.6766 0.165146 66.6766 0 66.6766C0.122603 65.0828 0.362958 63.4999 0.582868 61.9165Z" fill="#40362B"/>
<path d="M113.191 62.4023C114.361 61.5705 116.25 61.8007 117.63 61.8008C117.702 61.8007 117.774 61.8009 117.848 61.8008C120.253 61.8011 122.76 61.9674 124.618 63.6953C125.778 64.9384 126.05 66.4318 126.023 68.0674C125.962 69.557 125.313 70.8035 124.247 71.8252C123.609 72.3577 122.48 73.1853 121.625 73.1855C122.088 74.531 122.893 75.7338 123.643 76.9336C124.065 77.6102 124.476 78.2927 124.885 78.9775C126.543 82.0039 126.544 82.0039 129.202 84.0654V84.2597C128.672 84.2694 128.141 84.2766 127.61 84.2812C127.43 84.2832 127.249 84.2857 127.068 84.289C126.809 84.2938 126.549 84.2961 126.289 84.2978C126.209 84.2998 126.129 84.3016 126.046 84.3037C125.658 84.3038 125.463 84.2913 125.128 84.0791C124.896 83.8384 124.723 83.5957 124.545 83.3125C124.509 83.2549 124.473 83.197 124.436 83.1377C123.607 81.8052 122.836 80.4362 122.068 79.0683C120.67 76.2011 120.669 76.2007 118.71 73.7676C118.382 73.7053 118.382 73.7058 118.014 73.709C117.947 73.7074 117.881 73.7057 117.812 73.7041C117.602 73.6994 117.391 73.6973 117.181 73.6953C117.037 73.6926 116.893 73.6896 116.75 73.6865C116.4 73.6793 116.05 73.6744 115.699 73.6709C115.707 74.648 115.716 75.6254 115.727 76.6025C115.731 77.0563 115.737 77.5101 115.74 77.9639C115.744 78.4029 115.748 78.8422 115.753 79.2812C115.755 79.4476 115.757 79.6139 115.758 79.7803C115.694 81.8037 115.694 81.8042 116.476 83.5801C116.731 83.7542 116.962 83.8543 117.253 83.9678V84.2597H112.008C112.056 84.0674 112.055 84.0673 112.104 83.8711C112.233 83.8044 112.363 83.7398 112.493 83.6767C113.326 82.5636 113.202 80.9849 113.198 79.6621C113.199 79.4977 113.199 79.3333 113.199 79.1689V76.4482C113.2 75.6689 113.199 74.8896 113.198 74.1103C113.197 73.2109 113.198 72.3115 113.199 71.4121V67.7021C113.2 67.2686 113.199 66.8349 113.198 66.4014C113.198 66.2428 113.199 66.0843 113.199 65.9258C113.201 65.1477 113.188 64.421 112.979 63.665C112.914 63.1646 112.887 62.8197 113.191 62.4023ZM115.698 73.0879C117.842 73.0879 120.016 73.4223 121.752 72.001C122.716 71.0633 123.367 69.897 123.496 68.5449C123.582 66.7567 123.285 65.1565 122.062 63.7803C120.709 62.5965 120.708 62.5967 115.698 62.5967V73.0879Z" fill="#41372B"/>
<path d="M130.563 61.9165C132.359 61.9165 134.154 61.9165 136.004 61.9165C136.004 62.0127 136.004 62.1089 136.004 62.2079C135.844 62.329 135.844 62.329 135.633 62.4447C135.236 62.6639 135.012 62.8855 134.844 63.3134C134.605 64.2134 134.602 65.0804 134.604 66.0042C134.604 66.1787 134.603 66.3533 134.602 66.5278C134.6 66.9987 134.601 67.4695 134.601 67.9404C134.601 68.3346 134.601 68.7288 134.6 69.1231C134.599 70.0534 134.599 70.9837 134.6 71.9141C134.601 72.8717 134.6 73.8293 134.597 74.787C134.595 75.6115 134.595 76.436 134.595 77.2606C134.595 77.752 134.595 78.2435 134.594 78.7349C134.592 79.197 134.592 79.6591 134.594 80.1212C134.595 80.2901 134.594 80.4589 134.593 80.6278C134.564 82.1183 134.564 82.1183 135.226 83.4059C135.436 83.5932 135.623 83.6915 135.882 83.7983C135.96 83.8309 136.037 83.8634 136.117 83.897C136.205 83.9323 136.205 83.9323 136.295 83.9683C136.295 84.0645 136.295 84.1607 136.295 84.2598C134.339 84.2598 132.384 84.2598 130.369 84.2598C130.369 84.1636 130.369 84.0674 130.369 83.9683C130.494 83.9031 130.62 83.8384 130.746 83.774C130.815 83.738 130.885 83.7019 130.957 83.6648C131.146 83.5798 131.146 83.5798 131.341 83.5798C131.475 83.2699 131.584 82.9542 131.687 82.6326C131.711 82.557 131.735 82.4813 131.76 82.4034C131.975 81.4943 131.939 80.5574 131.941 79.6294C131.941 79.4661 131.942 79.3027 131.943 79.1394C131.945 78.6055 131.946 78.0717 131.947 77.5378C131.947 77.3532 131.947 77.1685 131.948 76.9839C131.95 76.1162 131.951 75.2485 131.952 74.3807C131.953 73.3828 131.955 72.3848 131.959 71.3869C131.962 70.613 131.964 69.8391 131.964 69.0652C131.964 68.6041 131.965 68.1431 131.968 67.682C131.97 67.2478 131.97 66.8135 131.969 66.3793C131.969 66.221 131.97 66.0628 131.971 65.9046C131.98 64.7527 131.982 63.387 131.146 62.4994C130.844 62.3236 130.844 62.3236 130.563 62.2079C130.563 62.1118 130.563 62.0156 130.563 61.9165Z" fill="#42382D"/>
<path d="M147.271 61.8191C147.668 62.7541 148.037 63.6994 148.4 64.6482C148.464 64.8136 148.527 64.9798 148.591 65.1453C148.946 66.072 149.3 67.0001 149.651 67.9285C150.523 70.2308 151.405 72.5287 152.308 74.8191C152.388 75.0226 152.469 75.2259 152.549 75.4294C152.588 75.5281 152.626 75.6276 152.666 75.7292C152.91 76.349 153.152 76.9696 153.39 77.5916C153.881 78.8731 154.372 80.1528 154.933 81.406C154.992 81.5406 154.992 81.5411 155.052 81.6785C155.434 82.5071 155.953 83.2873 156.742 83.7742C156.891 83.8671 157.038 83.9627 157.18 84.0652V84.2595H151.06C151.092 84.1314 151.123 84.0029 151.156 83.8708C151.382 83.7707 151.609 83.6741 151.837 83.5798C152.242 83.1481 152.26 82.7011 152.254 82.1335C152.202 81.596 152.005 81.1212 151.806 80.6228C151.741 80.4556 151.741 80.4556 151.676 80.2849C151.537 79.9252 151.396 79.5661 151.254 79.2078C151.204 79.0806 151.153 78.9531 151.103 78.8259C151.078 78.7627 151.052 78.6997 151.026 78.6345C150.976 78.5078 150.927 78.3804 150.877 78.2537C150.758 77.9513 150.637 77.649 150.516 77.3474C150.472 77.2392 150.429 77.1308 150.385 77.0193C150.327 76.8757 150.327 76.8757 150.268 76.7292C150.185 76.4883 150.185 76.4881 150.185 76.197C147.556 76.2291 144.927 76.2607 142.219 76.2937C141.994 76.999 141.77 77.7048 141.539 78.4314C141.411 78.7518 141.282 79.072 141.15 79.4021C140.46 81.2527 140.46 81.2531 140.676 83.158C140.978 83.6068 141.323 83.8059 141.831 83.9685V84.2595H137.07C137.186 83.9116 137.255 83.8959 137.562 83.7195C139.11 82.7138 139.631 80.6559 140.233 79.0076C140.301 78.8252 140.368 78.643 140.436 78.4607C140.574 78.0866 140.711 77.712 140.849 77.3376C141.047 76.7961 141.247 76.2547 141.446 75.7136C141.625 75.2283 141.805 74.7421 141.983 74.2566C142.01 74.1836 142.037 74.1101 142.064 74.0349C142.114 73.9007 142.164 73.7668 142.213 73.6326C142.324 73.3296 142.437 73.0264 142.551 72.7244C142.745 72.2079 142.931 71.6886 143.118 71.1697C143.201 70.9399 143.284 70.71 143.367 70.4802C143.411 70.3599 143.454 70.239 143.499 70.115C144.204 68.1635 144.912 66.2127 145.626 64.2644C145.703 64.0552 145.779 63.8457 145.855 63.6365C145.961 63.3474 146.067 63.0582 146.173 62.7693C146.204 62.6837 146.235 62.5977 146.268 62.5095C146.521 61.8209 146.522 61.8205 146.937 61.8132C147.047 61.8152 147.157 61.817 147.271 61.8191ZM146.104 65.2195C145.318 67.3848 144.533 69.551 143.761 71.7214C143.688 71.9259 143.616 72.1312 143.543 72.3357C143.439 72.6279 143.333 72.9202 143.229 73.2126C143.197 73.3049 143.166 73.3946 143.134 73.4841C142.893 74.1563 142.699 74.8245 142.511 75.5164H149.894C149.894 75.3225 149.893 75.3223 149.799 75.0505C149.752 74.9272 149.707 74.807 149.661 74.6873C149.577 74.4658 149.493 74.2445 149.408 74.0232C149.341 73.8476 149.274 73.6715 149.207 73.4958C149.17 73.3985 149.134 73.3042 149.098 73.2097C148.25 70.987 147.383 68.7717 146.659 66.5046C146.638 66.4384 146.618 66.3737 146.598 66.3093C146.54 66.1294 146.54 66.1293 146.483 65.9529C146.384 65.633 146.342 65.4566 146.104 65.2195Z" fill="#42382D"/>
<path d="M25.1475 61.7924C27.3943 61.7658 29.6554 62.1166 31.3496 63.7221C32.4423 64.8765 32.8812 66.2214 32.8525 67.7895C32.7817 69.1581 32.3934 70.3084 31.4746 71.3393L31.3242 71.517C30.5652 72.3512 29.4889 72.8549 28.4629 73.2826C28.6763 74.7312 29.9082 76.1801 30.666 77.4174C30.9678 77.9107 31.265 78.4066 31.5605 78.9037C33.0868 81.8427 33.0867 81.843 35.5547 83.8715C36.1001 83.8175 36.5318 83.3926 36.8906 83.0082C37.2973 82.4805 37.5552 81.8955 37.8135 81.2865C37.8517 81.1969 37.8904 81.1074 37.9297 81.015C38.2824 80.1773 38.599 79.3281 38.9043 78.4721C39.0352 78.1049 39.1676 77.7382 39.2998 77.3715C39.3698 77.1773 39.4399 76.9827 39.5098 76.7885C39.8586 75.8195 40.2143 74.8525 40.5703 73.8861C41.2004 72.1758 41.8261 70.4636 42.4482 68.7504C43.7053 65.2891 43.706 65.2889 44.2217 63.8822C44.2799 63.7232 44.3375 63.5639 44.3955 63.4047C44.4739 63.1894 44.5528 62.9742 44.6318 62.7592C44.6754 62.6401 44.7197 62.5206 44.7646 62.3979C44.8805 62.1112 44.8802 62.1107 45.0742 61.8197C45.4264 61.8015 45.427 61.8015 45.7549 61.8197C46.3529 63.2859 46.9123 64.7657 47.4648 66.2494C48.582 69.2485 49.7235 72.2378 50.8848 75.2201C50.9946 75.5023 51.1043 75.7845 51.2139 76.0668C51.8088 77.5984 52.4103 79.1282 53.0518 80.641C53.1278 80.8207 53.2025 81.0009 53.2773 81.1811C53.7706 82.3257 54.399 83.3726 55.5664 83.9076C55.6305 83.9276 55.6947 83.9475 55.7607 83.9682V84.2602H49.543C49.6401 83.8716 49.6408 83.8714 49.8135 83.7621C49.8825 83.7342 49.9514 83.7059 50.0225 83.6771C50.2583 83.5813 50.3881 83.5243 50.5371 83.3158C50.6349 83.0264 50.645 82.7747 50.6484 82.4691C50.6512 82.3611 50.6534 82.2524 50.6562 82.141C50.5767 80.9391 49.9378 79.7364 49.4824 78.6381C49.3829 78.3974 49.2835 78.1564 49.1846 77.9154C49.1236 77.7669 49.0618 77.6183 49 77.4701C48.9582 77.3684 48.9587 77.3678 48.916 77.2641C48.8917 77.2055 48.8668 77.1466 48.8418 77.0863C48.7362 76.7951 48.6574 76.4946 48.5723 76.1967C45.9756 76.2287 43.3785 76.2613 40.7031 76.2943C39.2486 79.3704 39.2482 79.3708 39.1182 83.0277C39.4019 83.5302 39.7726 83.7823 40.3145 83.9682V84.2602C39.2767 84.2759 38.239 84.2879 37.2012 84.2953C36.7192 84.2989 36.2368 84.3032 35.7549 84.3109C35.2895 84.3183 34.8239 84.3229 34.3584 84.3246C34.1813 84.3259 34.0042 84.3278 33.8271 84.3314C32.2645 84.3626 32.2639 84.3633 31.7666 83.9428C31.6015 83.7558 31.602 83.755 31.4746 83.5795C31.3844 83.4678 31.3841 83.4679 31.292 83.3539C31.2518 83.2875 31.2113 83.2212 31.1699 83.1527C31.1225 83.0755 31.0752 82.998 31.0264 82.9184C30.9779 82.8361 30.9289 82.7541 30.8789 82.6693C30.8254 82.5809 30.7719 82.4919 30.7168 82.4008C30.256 81.6321 29.821 80.8492 29.3877 80.0648C28.8764 79.144 28.3318 78.2457 27.7812 77.348C27.3458 76.6374 26.9273 75.9214 26.5352 75.1859C26.5033 75.133 26.4713 75.0793 26.4385 75.0248C26.3505 74.8776 26.2691 74.7265 26.1914 74.5736C25.9197 74.1109 25.7263 73.8164 25.1934 73.6723C24.7772 73.6286 24.3628 73.6397 23.9453 73.6527C23.7992 73.6534 23.6529 73.654 23.5068 73.6537C23.1512 73.654 22.796 73.6608 22.4404 73.6713C22.4464 74.6179 22.4535 75.5645 22.4629 76.5111C22.4672 76.9508 22.471 77.3908 22.4736 77.8305C22.4762 78.2561 22.4805 78.6822 22.4854 79.1078C22.487 79.2688 22.4877 79.4302 22.4883 79.5912C22.4918 80.4228 22.5278 81.2321 22.668 82.0531C22.6792 82.12 22.6906 82.1873 22.7021 82.2563C22.8029 82.7891 22.9527 83.2268 23.3506 83.6039C23.593 83.7655 23.8169 83.8739 24.0918 83.9682V84.2602H18.5537C18.6018 84.0678 18.6023 84.0676 18.6514 83.8715C18.7834 83.8115 18.7836 83.8115 18.918 83.7504C19.3604 83.5121 19.5289 83.2625 19.7197 82.8031C19.9353 81.7608 19.9423 80.7084 19.9404 79.6488C19.9409 79.4842 19.9418 79.3193 19.9424 79.1547C19.9437 78.712 19.9436 78.2692 19.9434 77.8266C19.9433 77.4553 19.9439 77.0836 19.9443 76.7123C19.9454 75.836 19.9459 74.9597 19.9453 74.0834C19.9447 73.1824 19.9452 72.2812 19.9473 71.3803C19.949 70.6034 19.9495 69.8261 19.9492 69.0492C19.949 68.5868 19.9498 68.124 19.9512 67.6615V65.8813C19.9878 64.1158 19.9881 64.1157 19.2344 62.5971C18.9838 62.4446 18.728 62.3202 18.457 62.2084V61.9164C20.5106 61.8587 22.5647 61.8085 24.6191 61.7973C24.7951 61.7961 24.9715 61.7946 25.1475 61.7924ZM44.5879 65.3168C44.4799 65.4248 44.4803 65.4256 44.2979 65.9311C44.2712 66.0058 44.2446 66.0782 44.2188 66.1508C44.1341 66.386 44.0501 66.6215 43.9658 66.8568C43.908 67.0185 43.85 67.1806 43.792 67.3422C43.7078 67.5766 43.6232 67.8109 43.5391 68.0453C43.2749 68.7829 43.0078 69.5193 42.7393 70.2553C42.5554 70.7589 42.3713 71.263 42.1885 71.767C42.108 71.9889 42.0278 72.2112 41.9473 72.433C41.8259 72.7649 41.7044 73.0968 41.584 73.4291C41.5451 73.5365 41.5075 73.6413 41.4697 73.7455C41.4138 73.8976 41.4132 73.8982 41.3584 74.0473C41.3238 74.1435 41.2905 74.2371 41.2568 74.3305C41.1064 74.7438 41.0594 75.0604 40.9941 75.517H48.2793C48.2793 75.2256 48.2796 75.2256 48.2129 75.0121C48.1649 74.8846 48.1652 74.8842 48.1182 74.7592C48.0814 74.6609 48.0454 74.5656 48.0098 74.4701C47.9694 74.3637 47.9308 74.2599 47.8916 74.1566C47.7654 73.8202 47.6387 73.484 47.5117 73.1479C47.389 72.8232 47.2669 72.498 47.1445 72.1732C46.9871 71.7552 46.8289 71.3371 46.6709 70.9193C46.5161 70.5103 46.3619 70.1011 46.208 69.6918C46.1823 69.6232 46.1568 69.5562 46.1318 69.4896C45.7713 68.5301 45.4268 67.5677 45.1084 66.5932C45.0766 66.4938 45.0465 66.3967 45.0156 66.3002C44.9865 66.2099 44.9579 66.1222 44.9297 66.0346C44.8388 65.747 44.759 65.5734 44.5879 65.3168ZM22.5371 72.9916C23.9622 72.9916 25.4141 73.1734 26.8115 72.8939C28.0656 72.4252 28.9947 71.8036 29.6221 70.5746C30.292 69.1465 30.5448 67.2747 30.0205 65.7484C29.9862 65.6678 29.9532 65.5894 29.9199 65.5111C29.6434 64.86 29.3376 64.2544 28.8477 63.7377C27.5613 62.5971 27.5615 62.5971 22.5371 62.5971V72.9916Z" fill="#42382D"/>
<path d="M99.2812 90.1855C101.589 90.1855 103.898 90.1855 106.276 90.1855C106.276 90.6344 106.276 91.0832 106.276 91.5456C104.48 91.5456 102.685 91.5456 100.836 91.5456C100.836 92.4752 100.836 93.4049 100.836 94.3628C102.438 94.3628 104.041 94.3628 105.693 94.3628C105.693 94.7795 105.693 95.1963 105.693 95.6256C104.09 95.6256 102.487 95.6256 100.836 95.6256C100.836 96.5874 100.836 97.5491 100.836 98.54C102.727 98.54 104.618 98.54 106.567 98.54C106.567 98.9567 106.567 99.3735 106.567 99.8029C104.163 99.8029 101.758 99.8029 99.2812 99.8029C99.2812 96.6291 99.2812 93.4554 99.2812 90.1855Z" fill="#483E33"/>
<path d="M30.5996 90.2827C32.9078 90.2827 35.2159 90.2827 37.594 90.2827C37.594 90.6995 37.594 91.1162 37.594 91.5456C35.7988 91.5456 34.0036 91.5456 32.1539 91.5456C32.1539 92.4432 32.1539 93.3408 32.1539 94.2656C33.7568 94.2656 35.3597 94.2656 37.0112 94.2656C37.0112 94.7145 37.0112 95.1633 37.0112 95.6257C35.4083 95.6257 33.8054 95.6257 32.1539 95.6257C32.1539 96.5874 32.1539 97.5491 32.1539 98.54C34.0133 98.54 35.8726 98.54 37.7883 98.54C37.7883 98.9568 37.7883 99.3735 37.7883 99.8029C35.416 99.8029 33.0438 99.8029 30.5996 99.8029C30.5996 96.6612 30.5996 93.5196 30.5996 90.2827Z" fill="#463C31"/>
<path d="M91.43 91.1163C91.5974 91.2534 91.7564 91.3836 91.8998 91.5455C91.8998 91.7398 91.8998 91.7398 91.7435 91.9041C91.6748 91.9641 91.6062 92.0241 91.5355 92.0859C91.4679 92.1461 91.4003 92.2063 91.3306 92.2684C91.1182 92.4231 90.996 92.5019 90.7341 92.5169C90.5534 92.4092 90.5534 92.4092 90.3698 92.2498C89.5437 91.5868 88.5614 91.4605 87.5283 91.5455C86.4792 91.7482 85.6842 92.1646 85.0632 93.0452C84.9751 93.1911 84.8899 93.3388 84.8082 93.4884C84.7752 93.548 84.7421 93.6076 84.7081 93.669C84.3351 94.4771 84.409 95.5434 84.7024 96.3667C85.1551 97.3516 85.8172 97.956 86.8255 98.3547C87.976 98.7097 89.1649 98.5959 90.2483 98.0542C90.2804 97.0604 90.3125 96.0666 90.3455 95.0427C90.8264 95.0427 91.3072 95.0427 91.8027 95.0427C91.8027 96.293 91.8027 97.5432 91.8027 98.8313C90.8125 99.3814 90.8125 99.3814 90.2726 99.5842C90.1689 99.6238 90.0653 99.6634 89.9584 99.7041C88.6526 100.144 86.9399 100.059 85.6825 99.5114C84.4956 98.9033 83.6145 98.0165 83.1317 96.7663C82.682 95.3603 82.7485 93.978 83.4057 92.6505C84.129 91.4172 85.2691 90.5997 86.6418 90.2401C88.282 89.8578 90.0486 90.1065 91.43 91.1163Z" fill="#443A2F"/>
<path d="M48.2145 90.0581C48.2949 90.0586 48.3754 90.059 48.4582 90.0595C49.5136 90.0796 50.3737 90.3512 51.2927 90.8656C51.2353 91.3364 51.1004 91.7018 50.9042 92.1285C50.0298 91.837 50.0298 91.837 49.8399 91.7635C49.2642 91.5501 48.7471 91.4953 48.1355 91.497C48.0065 91.4929 48.0065 91.4929 47.8748 91.4887C47.2423 91.4868 46.7383 91.6252 46.2412 92.0313C46.0081 92.3995 45.9706 92.7717 46.0469 93.1971C46.4389 93.8766 47.0819 94.0453 47.8073 94.257C48.2409 94.3727 48.6758 94.4827 49.1111 94.5916C50.0298 94.8291 50.9963 95.103 51.5113 95.9657C51.8274 96.5978 51.8801 97.23 51.7189 97.9211C51.4606 98.6662 51.0304 99.0891 50.3452 99.4633C49.0379 100.088 47.194 100.171 45.8162 99.6936C45.2409 99.4673 44.7111 99.1806 44.2012 98.8315C44.2569 98.4966 44.3409 98.227 44.4987 97.9268C44.5339 97.8591 44.5691 97.7913 44.6053 97.7215C44.6322 97.671 44.6592 97.6206 44.6869 97.5686C44.9072 97.6779 45.1262 97.7892 45.3445 97.9025C45.4421 97.9526 45.5396 98.0027 45.6401 98.0543C45.7369 98.1044 45.8337 98.1545 45.9335 98.2061C46.5884 98.5033 47.172 98.5754 47.8805 98.5765C48.0039 98.58 48.0039 98.58 48.1298 98.5837C48.6785 98.5862 49.0736 98.4848 49.5628 98.2352C49.7384 98.1514 49.7384 98.1514 49.9327 98.1514C50.1424 97.7321 50.1981 97.3489 50.127 96.8886C49.8498 96.3342 49.3199 96.2062 48.767 96.0143C48.2436 95.8643 47.7148 95.7357 47.1855 95.6082C46.2272 95.364 45.2412 95.0346 44.6869 94.1685C44.3245 93.5118 44.2534 92.7237 44.4592 92.0021C44.8085 91.2267 45.416 90.7543 46.1615 90.384C46.837 90.1343 47.4975 90.053 48.2145 90.0581Z" fill="#453B30"/>
<path d="M140.957 90.2827C143.618 90.2827 146.279 90.2827 149.02 90.2827C149.02 90.6995 149.02 91.1162 149.02 91.5456C147.962 91.5456 146.904 91.5456 145.814 91.5456C145.814 94.2705 145.814 96.9954 145.814 99.8029C145.301 99.8029 144.788 99.8029 144.26 99.8029C144.26 97.078 144.26 94.3531 144.26 91.5456C143.17 91.5456 142.08 91.5456 140.957 91.5456C140.957 91.1288 140.957 90.7121 140.957 90.2827Z" fill="#433A2E"/>
<path d="M17 90.1855C17.5129 90.1855 18.0258 90.1855 18.5543 90.1855C18.5543 92.9425 18.5543 95.6995 18.5543 98.54C20.3175 98.54 22.0807 98.54 23.8973 98.54C23.8973 98.9567 23.8973 99.3735 23.8973 99.8029C21.6212 99.8029 19.3451 99.8029 17 99.8029C17 96.6291 17 93.4554 17 90.1855Z" fill="#463C31"/>
<path d="M113.562 90.2827C114.075 90.2827 114.588 90.2827 115.117 90.2827C115.117 93.0076 115.117 95.7325 115.117 98.54C116.848 98.54 118.579 98.54 120.363 98.54C120.363 98.9568 120.363 99.3735 120.363 99.8029C118.119 99.8029 115.875 99.8029 113.562 99.8029C113.562 96.6612 113.562 93.5196 113.562 90.2827Z" fill="#453B30"/>
<path d="M155.723 90.2827C156.236 90.2827 156.749 90.2827 157.277 90.2827C157.277 93.4244 157.277 96.566 157.277 99.8029C156.764 99.8029 156.251 99.8029 155.723 99.8029C155.723 96.6612 155.723 93.5196 155.723 90.2827Z" fill="#463B30"/>
<path d="M63.4336 90.2827C63.9855 91.3821 64.5299 92.4848 65.0674 93.5913C65.1054 93.6695 65.1434 93.748 65.1826 93.8286C65.7631 95.0229 66.3404 96.219 66.9102 97.4185C67.0348 97.6797 67.161 97.9402 67.2871 98.2007C67.3688 98.3703 67.4506 98.5398 67.5322 98.7095C67.5699 98.7866 67.6077 98.8644 67.6465 98.9438C67.9026 99.4784 67.9023 99.4789 67.9023 99.8032H66.3486C65.9924 99.0908 65.6355 98.3779 65.2793 97.6655H60.0342C59.7457 98.3387 59.4564 99.012 59.1592 99.7056C59.0622 99.8026 59.0622 99.8025 58.7129 99.812C58.5684 99.8114 58.4238 99.8107 58.2793 99.8091C58.2056 99.8086 58.1316 99.8076 58.0557 99.8071C57.8732 99.806 57.6903 99.8051 57.5078 99.8032C57.7371 99.0226 58.0813 98.3038 58.4326 97.5728C58.6182 97.1863 58.8024 96.7989 58.9863 96.4116C59.0244 96.3315 59.0633 96.251 59.1025 96.1685C59.5212 95.2865 59.9305 94.4004 60.3379 93.5132C60.3716 93.44 60.4047 93.366 60.4395 93.2905C60.8986 92.2927 61.3445 91.2901 61.7822 90.2827H63.4336ZM62.0205 93.0376C61.947 93.202 61.8734 93.3664 61.7998 93.5308C61.6917 93.7711 61.584 94.0118 61.4766 94.2524C61.4415 94.3311 61.4071 94.4075 61.373 94.4839C61.1165 95.0522 60.9123 95.6133 60.7139 96.2085H64.5996C64.5996 95.9171 64.5991 95.9169 64.5264 95.7456C64.3198 95.3579 64.1284 94.9669 63.9492 94.5659C63.8883 94.4288 63.827 94.2917 63.7656 94.1548C63.6668 93.9348 63.5682 93.7147 63.4697 93.4946C63.3708 93.2721 63.2717 93.0497 63.1719 92.8276C63.1398 92.7564 63.1083 92.6869 63.0771 92.6177C62.9426 92.3128 62.8695 91.9926 62.5596 91.8374C62.3798 92.2373 62.1995 92.6373 62.0205 93.0376Z" fill="#453C30"/>
<path d="M5.20312 90.2771C5.28136 90.2775 5.35983 90.2776 5.44043 90.2781C5.63453 90.2792 5.82934 90.2811 6.02344 90.283C6.81576 91.9141 7.60703 93.5456 8.3877 95.1824C8.62412 95.678 8.86253 96.1729 9.10059 96.6677C9.33817 97.1618 9.57494 97.6565 9.81152 98.1511C9.85017 98.2319 9.8889 98.313 9.92871 98.3962C10.0277 98.6036 10.1265 98.8115 10.2246 99.0193C10.2772 99.1303 10.3296 99.2418 10.3838 99.3562C10.4915 99.6084 10.4912 99.6086 10.4912 99.8025H8.83984C8.67756 99.4669 8.51594 99.1307 8.35449 98.7947C8.3082 98.6991 8.26156 98.6031 8.21387 98.5046C8.17012 98.4134 8.12612 98.3223 8.08105 98.2283C8.02004 98.1017 8.02019 98.1014 7.95801 97.9724C7.86883 97.7631 7.86914 97.7624 7.86914 97.5681C6.13805 97.6002 4.40659 97.6327 2.62305 97.6658C2.30251 98.3709 1.98161 99.076 1.65137 99.8025H0.0976562C0.182738 99.2923 0.312703 98.9223 0.535156 98.4685C0.587251 98.3599 0.587478 98.3596 0.640625 98.2488C0.715399 98.093 0.790833 97.9375 0.866211 97.782C1.06711 97.3673 1.26525 96.9507 1.46387 96.5349C1.50422 96.4506 1.54437 96.3659 1.58594 96.2791C1.97585 95.4626 2.3537 94.6405 2.72656 93.8162C2.75642 93.7502 2.78565 93.6839 2.81641 93.616C3.10603 92.9763 3.39471 92.336 3.68164 91.6951C3.72294 91.6029 3.7641 91.5107 3.80664 91.4158C3.88109 91.2494 3.95536 91.0824 4.0293 90.9158C4.31118 90.2843 4.31125 90.2842 4.74219 90.2732C4.8958 90.2738 5.04952 90.2755 5.20312 90.2771ZM5.14844 91.8367C5.04001 91.9451 5.04004 91.9456 4.79102 92.5105C4.73699 92.6342 4.73656 92.6344 4.68359 92.7556C4.60911 92.9256 4.53435 93.0954 4.45996 93.2654C4.34261 93.5346 4.22566 93.8042 4.10742 94.073C4.03045 94.2479 3.95347 94.4233 3.87695 94.5984C3.82158 94.7253 3.82098 94.7257 3.7666 94.8503C3.7303 94.9326 3.69539 95.0127 3.66016 95.0925C3.62646 95.1702 3.59326 95.2456 3.56055 95.321C3.4256 95.6297 3.37157 95.8646 3.30273 96.2087H7.18848C7.18848 96.0145 7.18802 96.0144 7.06348 95.7576C6.91638 95.4702 6.78146 95.1808 6.64941 94.8865C6.58829 94.7497 6.52632 94.6129 6.46484 94.4763C6.36579 94.2564 6.26678 94.0362 6.16797 93.8162C6.06928 93.5954 5.97049 93.3745 5.87109 93.1541C5.83893 93.0828 5.80759 93.0133 5.77637 92.9441C5.59989 92.5469 5.42921 92.1731 5.14844 91.8367Z" fill="#453C31"/>
<path d="M131.727 90.2827C132.262 91.3498 132.791 92.4202 133.312 93.4946C133.347 93.5683 133.383 93.6424 133.42 93.7183C133.943 94.7969 134.464 95.8768 134.979 96.9595C135.153 97.3239 135.329 97.6872 135.505 98.0503C135.573 98.1918 135.573 98.1921 135.643 98.3364C135.729 98.516 135.817 98.6954 135.904 98.8745C135.962 98.9936 135.962 98.9935 136.021 99.1147C136.054 99.1845 136.088 99.2548 136.123 99.3267C136.195 99.5115 136.195 99.5118 136.195 99.8032H134.642L133.864 98.2485C133.828 98.1826 133.792 98.1162 133.755 98.0483C133.67 97.86 133.67 97.8597 133.67 97.5688C131.025 97.6169 131.025 97.6165 128.327 97.6655L127.355 99.8032H125.801C125.892 99.3472 126.039 98.987 126.239 98.5747C126.291 98.4662 126.291 98.4658 126.344 98.355C126.419 98.1986 126.494 98.0424 126.569 97.8862C126.77 97.4699 126.969 97.0525 127.168 96.6353C127.208 96.5506 127.248 96.4656 127.29 96.3784C127.677 95.565 128.053 94.746 128.424 93.9253C128.453 93.8599 128.483 93.7945 128.514 93.7271C128.657 93.4103 128.8 93.0928 128.943 92.7759C129.188 92.2337 129.434 91.6923 129.681 91.1509C129.758 90.9797 129.836 90.8084 129.914 90.6372L130.075 90.2827H131.727ZM130.315 93.0376C130.242 93.202 130.168 93.3664 130.095 93.5308C129.987 93.7711 129.878 94.0118 129.771 94.2524C129.735 94.331 129.702 94.4076 129.668 94.4839C129.411 95.0522 129.206 95.6132 129.008 96.2085H132.894C132.894 96.0142 132.894 96.0141 132.818 95.8267C132.765 95.7102 132.765 95.7102 132.712 95.5962C132.671 95.5077 132.632 95.4214 132.593 95.3354C132.505 95.1465 132.417 94.9573 132.33 94.7681C132.284 94.6684 132.24 94.5718 132.195 94.4751C132.06 94.18 131.925 93.8842 131.793 93.5874C131.751 93.4922 131.711 93.3996 131.67 93.3071C131.592 93.131 131.514 92.9541 131.437 92.7778C131.399 92.6919 131.362 92.6083 131.326 92.5249C131.291 92.4463 131.257 92.3698 131.224 92.2935C131.116 92.0464 131.098 91.9596 130.854 91.8374C130.674 92.2373 130.494 92.6373 130.315 93.0376Z" fill="#453C30"/>
<path d="M137.167 83.9683C137.264 84.0003 137.36 84.0324 137.459 84.0654C137.597 84.0764 137.736 84.0825 137.875 84.0854C137.959 84.0873 138.043 84.0892 138.129 84.0912C138.219 84.0928 138.309 84.0945 138.401 84.0961C138.493 84.0982 138.586 84.1002 138.681 84.1023C138.976 84.1086 139.271 84.1143 139.566 84.1201C139.766 84.1242 139.966 84.1285 140.165 84.1328C140.656 84.1432 141.146 84.153 141.636 84.1626C141.636 84.1946 141.636 84.2267 141.636 84.2597C140.129 84.2597 138.623 84.2597 137.07 84.2597C137.102 84.1635 137.134 84.0673 137.167 83.9683Z" fill="#4E473F"/>
<path d="M76.5243 13.8642C78.066 15.1196 79.0387 16.8443 79.2504 18.833C79.4685 21.3821 78.9043 23.5873 77.2493 25.5663C75.9279 26.9656 74.1146 27.7872 72.1928 27.8577C70.3681 27.8854 68.8783 27.3691 67.5345 26.0941C66.4885 25.0182 66.1286 23.855 66.1259 22.3825C66.1436 21.2982 66.466 20.417 67.1281 19.5615C67.1982 19.4613 67.2683 19.3612 67.3406 19.2579C68.0048 18.4937 68.9936 18.0681 69.9828 17.9768C70.9594 17.9431 71.7849 18.1206 72.5154 18.7992C72.7993 19.1391 73.0121 19.5297 73.1511 19.9501C73.119 20.0463 73.0869 20.1424 73.0539 20.2415C73.0057 20.1958 72.9575 20.1501 72.9078 20.103C72.2869 19.5339 71.7432 19.2 70.8799 19.2302C70.1831 19.3393 69.636 19.7005 69.1928 20.2377C68.8336 20.8218 68.7255 21.3011 68.731 21.978C68.7316 22.0937 68.7316 22.0937 68.7322 22.2118C68.7499 22.8216 68.8666 23.263 69.2653 23.7387C69.3394 23.8289 69.4135 23.9191 69.4899 24.012C70.1416 24.5424 70.7829 24.7277 71.615 24.7284C71.7214 24.7302 71.7214 24.7302 71.8299 24.732C72.8561 24.7347 73.8538 24.4074 74.6443 23.738C75.684 22.6412 75.9299 21.3123 75.9018 19.8567C75.8542 18.791 75.478 17.8753 74.7782 17.0783C73.5292 15.9712 72.188 15.3237 70.4978 15.3418C70.3503 15.3431 70.3503 15.3431 70.1999 15.3445C68.1044 15.3929 66.3663 16.6213 64.9302 18.0702C63.5997 19.6145 62.7404 21.4754 62.2709 23.4473C62.245 23.5555 62.245 23.5555 62.2187 23.6658C62.0389 24.5144 62.0339 25.3647 62.0341 26.2281C62.0339 26.3071 62.0338 26.3861 62.0337 26.4675C62.0356 27.8693 62.1872 29.1836 62.5623 30.5389C62.5815 30.611 62.6007 30.6832 62.6204 30.7576C63.1092 32.5521 64.0339 34.1473 65.6709 35.1047C66.87 35.7745 68.0866 36.0399 69.4356 36.2442C70.8964 36.4659 72.224 36.7984 73.1814 38.0129C73.6697 38.6801 73.8994 39.3733 74.0679 40.1744C74.3214 41.2976 74.5812 42.3971 75.3854 43.2648C75.4377 43.3223 75.4901 43.3798 75.544 43.439C76.6148 44.4889 78.1011 44.8597 79.5554 44.8548C81.3778 44.8071 82.9523 44.0732 84.2255 42.7791C84.2255 43.6098 83.4008 44.3718 82.8507 44.9394C81.1595 46.5795 78.9258 46.9197 76.667 46.9053C75.6212 46.8815 74.6433 46.7515 73.6368 46.4706C73.5146 46.4376 73.3923 46.4047 73.2664 46.3708C70.1399 45.4241 67.2728 43.4247 64.9909 41.1276C64.9341 41.0705 64.8772 41.0134 64.8187 40.9546C61.0035 37.0799 59.3363 31.8272 59.3322 26.4649C59.3322 26.3861 59.3321 26.3074 59.332 26.2263C59.337 22.419 60.2691 19.0025 62.7566 16.0643C62.8307 15.9753 62.9048 15.8862 62.9812 15.7945C66.3442 11.897 72.3143 10.5618 76.5243 13.8642Z" fill="#A02C23"/>
<path d="M85.2932 0.423904C85.3598 0.437428 85.4264 0.450953 85.495 0.464887C85.9517 0.560636 86.3998 0.680961 86.8475 0.812482C86.9271 0.835508 87.0066 0.858534 87.0886 0.882258C90.8591 1.98698 94.3121 3.88847 97.1763 6.59031C97.4302 6.82976 97.6902 7.06049 97.9523 7.29081C98.2969 7.60037 98.6071 7.91997 98.9048 8.2744C99.0387 8.42995 99.1776 8.58121 99.3192 8.72977C102.463 12.0299 104.407 16.327 105.59 20.6786C105.612 20.757 105.634 20.8355 105.656 20.9163C105.802 21.4698 105.802 21.4698 105.694 21.7957C105.656 21.6861 105.618 21.5766 105.579 21.4637C104.504 18.4128 102.898 15.5673 100.739 13.1498C100.668 13.0667 100.596 12.9835 100.523 12.8979C99.594 11.8305 98.5288 10.9274 97.4068 10.0711C97.2498 9.9501 97.095 9.82629 96.9403 9.70235C92.9848 6.55901 87.6226 4.13055 82.5166 4.02324C82.3478 4.01966 82.1791 4.01479 82.0104 4.0091C76.0746 3.81809 70.258 5.91398 65.67 9.65264C65.5797 9.72606 65.5797 9.72606 65.4876 9.80097C64.1632 10.8872 62.9983 12.0641 61.9785 13.4413C61.918 13.5217 61.8575 13.6021 61.7952 13.6849C61.289 14.3811 60.8685 15.1307 60.4377 15.8747C60.2527 16.1914 60.0599 16.5034 59.866 16.8148C59.7054 17.1059 59.5802 17.4092 59.4527 17.7156C59.4046 17.8278 59.4046 17.8278 59.3555 17.9423C58.6071 19.6872 58.0932 21.378 57.8013 23.2529C57.7692 23.2529 57.7371 23.2529 57.7041 23.2529C57.4096 18.92 59.6245 13.9252 62.1728 10.5269C62.2471 10.4264 62.2471 10.4264 62.323 10.3238C63.7682 8.37371 65.3622 6.44529 67.3214 4.9897C67.3789 4.94687 67.4364 4.90405 67.4956 4.85992C69.2036 3.59626 71.0094 2.5393 72.9558 1.68678C73.0213 1.65803 73.0867 1.62927 73.1542 1.59965C74.4274 1.05328 75.7862 0.731544 77.133 0.423904C77.2585 0.395071 77.2585 0.395071 77.3865 0.365655C79.8493 -0.167233 82.8357 -0.0917002 85.2932 0.423904Z" fill="#D0A360"/>
<path d="M83.5449 5.37837C84.1814 5.34582 84.7691 5.46795 85.3907 5.59694C85.4993 5.61925 85.608 5.64156 85.7199 5.66454C86.5263 5.83255 87.3226 6.01145 88.1107 6.25267C88.2115 6.28291 88.2115 6.28291 88.3144 6.31377C91.4783 7.28111 94.427 8.98929 96.9509 11.1099C97.0417 11.1827 97.1325 11.2554 97.226 11.3304C97.9424 11.9144 98.6027 12.5469 99.2581 13.1985C99.3431 13.2826 99.4281 13.3668 99.5157 13.4534C103.557 17.5133 106.105 23.2315 106.107 28.9797C106.089 30.6069 105.858 32.2304 105.46 33.8071C105.397 34.0592 105.338 34.312 105.279 34.565C104.56 37.5644 103.169 40.3188 101.322 42.779C101.28 42.8355 101.238 42.892 101.194 42.9502C100.541 43.8155 99.8411 44.6225 99.0881 45.4019C99.0141 45.4791 98.9401 45.5562 98.8639 45.6357C97.7761 46.7652 96.6784 47.8003 95.3966 48.7049C95.2916 48.7813 95.1868 48.8578 95.082 48.9344C91.9336 51.1867 88.1693 52.9599 84.3221 53.5621C84.5325 53.3517 84.6533 53.3062 84.9311 53.213C85.0164 53.1836 85.1017 53.1542 85.1895 53.1239C85.282 53.0922 85.3744 53.0605 85.4696 53.0278C87.852 52.1795 90.0191 50.9656 91.9965 49.3849C92.0809 49.319 92.1653 49.2531 92.2523 49.1853C93.3115 48.3422 94.3421 47.4213 95.2023 46.3734C95.2814 46.2822 95.3606 46.1911 95.4421 46.0971C97.7401 43.4484 99.4309 40.4298 100.642 37.1447C100.675 37.0557 100.708 36.9668 100.742 36.8752C102.015 33.3884 102.468 29.5545 101.905 25.8759C101.887 25.7578 101.887 25.7578 101.869 25.6373C101.399 22.684 100.412 19.7143 98.8938 17.1329C98.8527 17.0621 98.8117 16.9914 98.7694 16.9185C98.1603 15.8738 97.4962 14.8835 96.7566 13.9271C96.6872 13.8369 96.6178 13.7468 96.5464 13.6539C95.1976 11.9566 93.6539 10.5283 91.8994 9.26415C91.8427 9.22297 91.7861 9.18179 91.7277 9.13936C89.516 7.54658 86.9682 6.3286 84.3221 5.6698C84.2381 5.64814 84.154 5.62648 84.0675 5.60415C83.8936 5.55987 83.7193 5.51738 83.5449 5.47551C83.5449 5.44346 83.5449 5.4114 83.5449 5.37837Z" fill="#D0A45F"/>
<path d="M100.642 31.4131C100.674 31.4131 100.706 31.4131 100.739 31.4131C100.769 32.104 100.655 32.7404 100.52 33.4167C100.498 33.5299 100.476 33.643 100.452 33.7596C100.294 34.547 100.121 35.3139 99.8645 36.076C99.8402 36.1499 99.8158 36.2238 99.7908 36.3C98.8591 39.0993 97.4956 41.7103 95.6873 44.0419C95.6229 44.1258 95.5586 44.2097 95.4923 44.2961C95.1003 44.7963 94.6871 45.2786 94.2726 45.7601C94.1954 45.8502 94.1954 45.8502 94.1165 45.9421C93.523 46.6262 92.8828 47.2476 92.1901 47.8305C92.1095 47.8986 92.1095 47.8986 92.0272 47.968C91.1167 48.7331 90.1872 49.4345 89.1786 50.0649C89.116 50.1045 89.0533 50.1442 88.9888 50.185C85.4114 52.4334 81.268 53.6312 77.0538 53.6046C76.9558 53.6043 76.8578 53.604 76.7569 53.6038C75.3223 53.5979 73.9619 53.5334 72.5669 53.1735C72.4068 53.1355 72.2466 53.0977 72.0865 53.06C71.6275 52.9485 71.1739 52.8222 70.7211 52.6878C70.6133 52.6559 70.6133 52.6559 70.5032 52.6233C67.0712 51.5894 63.8027 49.6085 61.201 47.1505C61.0719 47.0387 60.9424 46.9273 60.8124 46.8166C60.0736 46.1699 59.41 45.4726 58.7985 44.7048C58.6518 44.5222 58.5018 44.3423 58.3485 44.1652C55.8244 41.2466 54.2191 37.6475 53.0773 33.9996C53.0255 33.8349 53.0255 33.8349 52.9726 33.6669C52.9418 33.5655 52.911 33.4642 52.8792 33.3598C52.8517 33.2698 52.8242 33.1799 52.7958 33.0872C52.7494 32.8703 52.7494 32.8703 52.8465 32.676C52.8726 32.7398 52.8986 32.8037 52.9255 32.8695C53.0332 33.1311 53.1423 33.392 53.2525 33.6526C53.3067 33.7812 53.3607 33.9099 53.4143 34.0388C54.4639 36.5476 55.9532 38.7952 57.7873 40.8008C57.9688 41.0013 58.1432 41.2058 58.317 41.4129C62.228 45.893 68.919 49.1152 74.8012 49.6763C75.1027 49.691 75.4037 49.6944 75.7055 49.696C75.7906 49.6967 75.8757 49.6974 75.9633 49.6981C76.2378 49.6997 76.5122 49.7004 76.7866 49.7006C76.8803 49.7007 76.9739 49.7008 77.0704 49.7009C78.5371 49.6998 79.9592 49.6367 81.4071 49.3848C81.4832 49.3729 81.5594 49.3609 81.6379 49.3486C87.2367 48.4574 92.8384 45.039 96.2702 40.5447C96.3103 40.4931 96.3504 40.4415 96.3917 40.3883C98.4231 37.766 100.005 34.6834 100.642 31.4131Z" fill="#D0A45F"/>
<path d="M72.664 0.812545C72.5499 0.858503 72.4358 0.904461 72.3183 0.951811C69.5946 2.06353 67.1117 3.59974 64.9622 5.61817C64.739 5.826 64.5119 6.02534 64.2792 6.22229C63.9709 6.4908 63.7016 6.77613 63.4379 7.08824C63.2875 7.26617 63.1351 7.44101 62.9802 7.61494C59.3892 11.6759 57.2716 16.7505 56.538 22.0872C56.5268 22.1679 56.5156 22.2487 56.5041 22.3318C56.42 23.0382 56.4261 23.7475 56.4281 24.4577C56.4287 24.6713 56.4281 24.8848 56.4275 25.0983C56.4265 26.5535 56.5098 27.9693 56.7808 29.4034C56.7932 29.4695 56.8056 29.5356 56.8184 29.6036C57.43 32.8149 58.7718 36.1496 60.7152 38.7961C60.7848 38.892 60.8544 38.9879 60.9262 39.0868C61.1436 39.3814 61.3656 39.672 61.5895 39.9618C61.6493 40.0418 61.7092 40.1219 61.7709 40.2043C62.818 41.5521 64.1033 42.8314 65.4753 43.8476C65.5334 43.8921 65.5915 43.9366 65.6514 43.9825C68.1368 45.8846 70.9132 47.3667 73.9268 48.2191C73.9268 48.2512 73.9268 48.2832 73.9268 48.3163C71.3694 48.0878 68.8361 47.1011 66.5438 45.9848C66.4673 45.9475 66.3907 45.9102 66.3118 45.8718C64.104 44.7824 62.0319 43.389 60.2294 41.7104C60.0983 41.5966 59.9668 41.4833 59.8348 41.3704C59.1345 40.7591 58.4947 40.0909 57.898 39.379C57.8311 39.3003 57.8311 39.3003 57.7629 39.22C55.0076 35.9691 53.3276 32.1117 52.6522 27.9159C52.6264 27.7628 52.6264 27.7628 52.6002 27.6065C52.5453 27.1561 52.5338 26.7128 52.5285 26.2595C52.5266 26.1191 52.5266 26.1191 52.5248 25.9759C52.5038 23.9722 52.5217 22.0918 53.0407 20.1443C53.0789 19.9825 53.1167 19.8206 53.1538 19.6586C53.9991 16.083 55.8039 12.8875 58.0923 10.0413C58.1708 9.94098 58.2493 9.84067 58.3302 9.73733C59.5559 8.22341 61.0082 6.73515 62.5905 5.59573C62.7737 5.46201 62.9527 5.32365 63.1316 5.18443C63.9155 4.57796 64.7149 4.03266 65.577 3.54379C65.772 3.43243 65.9649 3.31798 66.1579 3.20321C71.1196 0.297773 71.1196 0.297773 72.664 0.812545Z" fill="#D0A35F"/>
<path d="M94.1571 28.4804C94.3127 28.6139 94.4666 28.7495 94.6185 28.8872C94.7397 28.9931 94.7397 28.9931 94.8633 29.1012C96.0695 30.2203 96.9101 31.7775 96.9732 33.437C97.035 36.5071 95.768 38.9381 93.6708 41.1362C91.1585 43.7069 87.8853 45.3859 84.4973 46.4764C84.4326 46.4974 84.368 46.5184 84.3014 46.5401C83.8592 46.6765 83.8592 46.6765 83.6412 46.5675C83.7 46.5202 83.7589 46.4728 83.8195 46.424C85.577 44.937 86.4479 42.9341 86.6394 40.6532C86.6859 39.931 86.7097 39.1873 86.6052 38.4703C86.4658 37.4758 86.3226 36.1814 86.8766 35.2998C87.2978 34.8 87.825 34.2131 88.4992 34.1003C89.2139 34.0872 89.8284 34.2435 90.3772 34.7181C91.0828 35.4658 91.1839 36.2124 91.1593 37.2196C91.1077 38.0342 90.7769 38.792 90.3442 39.4759C91.5005 38.8068 92.3202 38.0096 92.755 36.7138C93.0712 35.3669 92.8872 34.0441 92.2142 32.8397C91.4975 31.7305 90.5282 31.1011 89.2756 30.7329C87.0889 30.2871 84.8752 31.0188 82.7949 31.6485C81.4699 32.049 79.6948 32.3374 78.3954 31.7044C77.5372 31.2401 76.9537 30.6548 76.6168 29.7315C76.472 29.168 76.4483 28.6261 76.6893 28.0918C76.7394 28.0337 76.7895 27.9756 76.8411 27.9157C76.8731 27.9157 76.9052 27.9157 76.9382 27.9157C76.9466 27.9698 76.955 28.0239 76.9636 28.0797C77.0829 28.7273 77.277 29.29 77.8023 29.7167C78.5505 30.206 79.2555 30.3547 80.144 30.2472C81.2765 29.9653 82.2786 29.3641 83.2943 28.808C86.7024 26.9445 90.8 25.8948 94.1571 28.4804Z" fill="#A02C22"/>
<path d="M92.675 12.2756C92.7391 12.2756 92.8032 12.2756 92.8693 12.2756C92.9723 12.6954 93.0683 13.1163 93.1607 13.5385C93.1813 13.6308 93.202 13.7231 93.2233 13.8182C93.7167 16.4269 93.336 19.3774 91.852 21.6133C91.4889 22.1369 91.0846 22.6082 90.6349 23.0587C90.5684 23.1263 90.5019 23.1939 90.4334 23.2636C89.2508 24.3916 87.6626 25.0454 86.0995 25.4327C83.6057 26.0619 83.6057 26.0619 81.643 27.6442C81.5087 27.812 81.3664 27.9612 81.2119 28.1102C81.4119 26.1019 82.3089 24.0796 83.6405 22.573C83.7073 22.4946 83.774 22.4162 83.8428 22.3354C84.8748 21.149 86.0544 20.2409 87.3209 19.323C87.9885 18.8352 88.6095 18.3178 89.1778 17.7157C89.1338 17.7465 89.0898 17.7773 89.0446 17.8091C88.1449 18.4247 87.1971 18.9738 86.2406 19.4962C83.9296 20.7589 82.2572 22.4517 81.0719 24.8027C80.9205 25.0987 80.9205 25.0987 80.7262 25.3902C80.1136 23.4103 80.4616 21.1227 81.4004 19.3135C81.6553 18.8432 81.9212 18.4061 82.2805 18.0072C82.3479 17.9309 82.4152 17.8546 82.4846 17.7761C83.8361 16.3344 85.6221 15.5696 87.4955 15.0579C90.3648 14.366 90.3648 14.366 92.5778 12.5671C92.6099 12.4709 92.6419 12.3747 92.675 12.2756Z" fill="#586839"/>
<path d="M64.115 24.03C64.1791 24.0621 64.2432 24.0941 64.3093 24.1272C64.3712 24.4045 64.4239 24.6794 64.4732 24.959C64.9002 27.1436 66.0525 28.9944 67.9097 30.2594C68.423 30.5957 68.9531 30.8872 69.5065 31.1519C69.5674 31.1812 69.6282 31.2105 69.6909 31.2406C70.9175 31.8007 72.1616 32.0875 73.4822 32.3146C76.6101 32.8581 80.1383 33.588 82.4753 35.8817C82.5702 35.973 82.5702 35.973 82.6669 36.0661C83.5582 36.9946 83.8802 38.145 83.8683 39.4009C83.7935 40.2313 83.4689 41.0302 82.8855 41.6341C81.8899 42.4337 80.8237 42.7124 79.5604 42.6146C78.451 42.4432 77.4629 41.597 76.8087 40.7302C76.3054 40.0007 75.924 39.2146 75.561 38.4082C74.8871 36.9196 74.0031 35.9443 72.4468 35.3456C72.1319 35.2289 71.8149 35.1184 71.498 35.0074C71.4206 34.9754 71.3432 34.9434 71.2635 34.9104C71.0191 34.8157 70.7819 34.7484 70.5273 34.6871C69.0154 34.3141 67.5871 33.9606 66.3493 32.9673C66.2829 32.9179 66.2165 32.8684 66.1482 32.8174C65.1701 32.0407 64.5717 30.9381 64.2121 29.7616C64.174 29.6401 64.136 29.5186 64.0967 29.3935C63.5903 27.6297 63.7666 25.807 64.115 24.03Z" fill="#586839"/>
<path d="M85.2932 0.423904C85.3598 0.437428 85.4264 0.450953 85.495 0.464887C85.9517 0.560636 86.3998 0.680961 86.8475 0.812482C86.9271 0.835508 87.0066 0.858534 87.0886 0.882258C91.0356 2.0387 95.2861 4.16246 97.922 7.41832C97.5919 7.27801 97.3268 7.0716 97.0456 6.85177C94.9023 5.18007 92.4105 3.87378 89.859 2.94966C89.784 2.9224 89.709 2.89513 89.6318 2.86703C88.5904 2.49321 87.5415 2.20447 86.4589 1.97822C86.3925 1.96407 86.3262 1.94992 86.2578 1.93534C85.3573 1.74564 84.466 1.61518 83.5446 1.58964C83.4551 1.58699 83.3656 1.58435 83.2734 1.58162C79.5492 1.48844 75.7133 2.00705 72.3634 3.72929C72.1583 3.8344 71.9516 3.93606 71.7449 4.03799C69.5636 5.13158 67.6162 6.60171 65.8643 8.29262C65.7987 8.35554 65.7331 8.41847 65.6656 8.4833C64.7451 9.37074 63.899 10.2721 63.1442 11.3041C63.0931 11.3729 63.0421 11.4417 62.9894 11.5125C62.3146 12.4216 61.6769 13.3383 61.1042 14.3156C61.0444 14.4154 60.9847 14.5152 60.9232 14.618C60.2564 15.7249 60.2564 15.7249 59.7988 16.9263C59.6936 17.3071 59.549 17.6378 59.3677 17.9889C58.5159 19.6441 58.086 21.4244 57.8013 23.2529C57.7692 23.2529 57.7371 23.2529 57.7041 23.2529C57.4096 18.92 59.6245 13.9252 62.1728 10.5269C62.2471 10.4264 62.2471 10.4264 62.323 10.3238C63.7682 8.37371 65.3622 6.44529 67.3214 4.9897C67.3789 4.94687 67.4364 4.90405 67.4956 4.85992C69.2036 3.59626 71.0094 2.5393 72.9558 1.68678C73.0213 1.65803 73.0867 1.62927 73.1542 1.59965C74.4274 1.05328 75.7862 0.731544 77.133 0.423904C77.2585 0.395071 77.2585 0.395071 77.3865 0.365655C79.8493 -0.167233 82.8357 -0.0917002 85.2932 0.423904Z" fill="#B07847"/>
<path d="M83.5449 5.37837C84.1814 5.34582 84.7691 5.46795 85.3907 5.59694C85.4993 5.61925 85.608 5.64156 85.7199 5.66454C86.5263 5.83255 87.3226 6.01145 88.1107 6.25267C88.2115 6.28291 88.2115 6.28291 88.3144 6.31377C91.4783 7.28111 94.427 8.98929 96.9509 11.1099C97.0417 11.1827 97.1325 11.2554 97.226 11.3304C97.9424 11.9144 98.6027 12.5469 99.2581 13.1985C99.3431 13.2826 99.4281 13.3668 99.5157 13.4534C103.557 17.5133 106.105 23.2315 106.107 28.9797C106.089 30.6069 105.858 32.2304 105.46 33.8071C105.397 34.0592 105.338 34.312 105.279 34.565C104.56 37.5644 103.169 40.3188 101.322 42.779C101.28 42.8355 101.238 42.892 101.194 42.9502C100.264 44.1828 99.2187 45.2932 98.1166 46.3734C98.1166 45.9981 98.2101 45.9567 98.4688 45.6934C101.934 41.9452 104.506 36.3047 104.551 31.1558C104.553 31.0216 104.553 31.0216 104.554 30.8846C104.581 28.0673 104.581 28.0673 104.14 25.293C104.116 25.1931 104.092 25.0931 104.067 24.9901C103.721 23.5868 103.264 22.2438 102.682 20.9215C102.651 20.85 102.62 20.7784 102.588 20.7047C101.545 18.3321 100.085 16.1778 98.3375 14.2667C98.1926 14.1076 98.0493 13.947 97.9079 13.7848C97.0351 12.7875 96.0451 11.9315 95.008 11.1099C94.9136 11.0343 94.8191 10.9586 94.7219 10.8807C93.1772 9.66509 91.5205 8.68062 89.7962 7.7411C89.6184 7.64113 89.4461 7.53152 89.2765 7.41841C89.094 7.37538 88.9115 7.3324 88.7289 7.28962C88.2756 7.16032 87.8531 6.95085 87.4246 6.75661C86.1569 6.1946 84.9065 5.75793 83.5449 5.47551C83.5449 5.44346 83.5449 5.4114 83.5449 5.37837Z" fill="#B17948"/>
<path d="M100.641 31.4131C100.673 31.4131 100.705 31.4131 100.738 31.4131C100.768 32.104 100.655 32.7404 100.52 33.4167C100.497 33.5299 100.475 33.643 100.452 33.7596C100.293 34.547 100.12 35.3139 99.8639 36.076C99.8396 36.1499 99.8153 36.2238 99.7902 36.3C98.8585 39.0993 97.495 41.7103 95.6867 44.0419C95.6224 44.1258 95.558 44.2097 95.4917 44.2961C95.0997 44.7963 94.6865 45.2786 94.272 45.7601C94.1948 45.8502 94.1948 45.8502 94.1159 45.9421C93.5224 46.6262 92.8822 47.2476 92.1895 47.8305C92.1089 47.8986 92.1089 47.8986 92.0266 47.968C91.1161 48.7331 90.1866 49.4345 89.178 50.0649C89.1154 50.1045 89.0527 50.1442 88.9882 50.185C85.4108 52.4334 81.2674 53.6312 77.0532 53.6046C76.9552 53.6043 76.8572 53.604 76.7563 53.6038C75.3217 53.5979 73.9613 53.5334 72.5663 53.1735C72.4062 53.1355 72.2461 53.0977 72.0859 53.06C71.6269 52.9485 71.1733 52.8222 70.7206 52.6878C70.6486 52.6665 70.5767 52.6452 70.5026 52.6233C67.0712 51.5896 63.8011 49.6089 61.2004 47.1505C61.0613 47.0285 60.9216 46.907 60.7814 46.7862C60.4874 46.5291 60.2012 46.2732 59.9375 45.9848C59.9375 45.9207 59.9375 45.8565 59.9375 45.7905C60.1318 45.7905 60.1318 45.7905 60.3591 46.0091C60.4444 46.0972 60.5296 46.1854 60.6175 46.2762C65.1162 50.3819 71.6161 52.4584 77.6178 52.202C78.2711 52.1708 78.9141 52.1053 79.5607 52.0077C79.6548 51.9936 79.749 51.9795 79.846 51.965C84.1562 51.2887 88.1845 49.3936 91.4541 46.5076C91.5638 46.411 91.6743 46.3152 91.7852 46.2199C93 45.1721 94.1301 44.0334 95.0834 42.7417C95.1993 42.587 95.3198 42.4359 95.4404 42.2849C95.928 41.6733 96.3663 41.0411 96.7857 40.3807C96.8334 40.3058 96.8812 40.2308 96.9304 40.1536C97.3279 39.5174 97.6732 38.8621 97.9647 38.1707C98.1763 37.6846 98.4303 37.2234 98.68 36.756C99.1327 35.8973 99.5387 35.0491 99.8639 34.1331C99.8963 34.0431 99.8963 34.0431 99.9294 33.9513C100.227 33.1182 100.461 32.2797 100.641 31.4131Z" fill="#B37B49"/>
<path d="M95.1054 15.6758C96.529 16.2786 97.2829 18.3775 97.8334 19.7233C98.393 21.1464 98.7215 22.6253 98.9912 24.1274C99.0042 24.1991 99.0172 24.2709 99.0307 24.3448C99.5216 27.1897 99.2033 30.1227 98.4083 32.8704C98.3442 32.8704 98.2801 32.8704 98.214 32.8704C98.2045 32.7891 98.195 32.7078 98.1852 32.6241C98.0331 31.4405 97.7923 30.3246 97.2729 29.2457C97.2447 29.1853 97.2165 29.125 97.1875 29.0628C96.6538 28.0146 95.8101 27.3617 94.8139 26.7806C92.7204 25.5358 92.7204 25.5358 92.3853 24.8074C92.2837 24.3833 92.3198 24.0649 92.5144 23.6735C92.7411 23.3119 92.9887 22.9688 93.2414 22.625C94.4322 20.985 94.8999 19.1516 94.9751 17.1578C94.9942 16.6583 95.0363 16.171 95.1054 15.6758Z" fill="#9F2B22"/>
<path d="M59.3551 8.58398C59.3551 8.97921 59.2063 9.08256 58.9544 9.38543C56.3898 12.594 54.877 16.5364 54.1093 20.5328C54.091 20.6238 54.0726 20.7148 54.0537 20.8086C53.8699 21.8284 53.8723 22.8514 53.8725 23.8843C53.8724 23.9807 53.8723 24.0772 53.8722 24.1765C53.8757 26.4336 54.1793 28.5555 54.9072 30.7006C54.9847 30.9304 55.0579 31.1612 55.1309 31.3925C56.2311 34.7944 58.1802 37.664 60.5755 40.2774C60.6253 40.3319 60.6752 40.3865 60.7265 40.4426C60.9825 40.7255 60.9825 40.7255 61.298 40.9331C61.298 40.9973 61.298 41.0614 61.298 41.1274C61.3521 41.1501 61.4062 41.1728 61.462 41.1961C61.7439 41.3537 61.9406 41.5517 62.1723 41.7771C63.4602 42.9901 64.9459 43.9875 66.4467 44.9161C66.5086 44.9548 66.5706 44.9936 66.6344 45.0336C67.4283 45.5297 68.2386 45.969 69.0795 46.3801C69.6355 46.6527 70.1781 46.95 70.7211 47.2475C70.7211 47.2796 70.7211 47.3117 70.7211 47.3447C69.8801 47.3183 69.1935 47.1602 68.42 46.8347C68.316 46.7918 68.212 46.749 68.1049 46.7048C65.2277 45.4918 62.5186 43.8422 60.2294 41.7103C60.0983 41.5965 59.9668 41.4831 59.8348 41.3703C59.1345 40.759 58.4947 40.0908 57.898 39.3788C57.8311 39.3002 57.8311 39.3002 57.7629 39.2199C55.0076 35.9689 53.3276 32.1116 52.6522 27.9158C52.6264 27.7626 52.6264 27.7626 52.6002 27.6064C52.5453 27.156 52.5338 26.7127 52.5285 26.2594C52.5272 26.1658 52.526 26.0722 52.5248 25.9757C52.5038 23.972 52.5217 22.0917 53.0407 20.1442C53.0789 19.9824 53.1167 19.8205 53.1538 19.6585C54.1202 15.5708 56.3788 11.5603 59.3551 8.58398Z" fill="#B27947"/>
<path d="M89.4208 9.8957C89.8321 10.2787 90.1119 10.6476 90.1919 11.2193C90.1322 11.6114 90.0087 11.8713 89.688 12.1118C88.6249 12.4366 87.4848 11.7048 86.5615 11.228C85.9521 10.9034 85.3813 10.5199 84.8064 10.1386C82.9066 8.89452 80.7106 8.56123 78.4899 9.00553C77.2224 9.29127 75.9952 9.72083 74.7711 10.1521C74.1998 10.3344 73.6696 10.3486 73.0743 10.3533C72.8838 10.3561 72.6932 10.3589 72.5027 10.3617C72.2052 10.3657 71.9077 10.3693 71.6102 10.3718C70.2619 10.3846 69.0185 10.482 67.709 10.8186C69.6078 8.72992 72.9195 7.79547 75.5777 7.22423C75.6521 7.20694 75.7265 7.18966 75.8031 7.17186C80.0763 6.1929 85.9801 7.07544 89.4208 9.8957Z" fill="#B17A48"/>
<path d="M81.9621 11.232C82.428 11.5885 82.6309 11.9123 82.7146 12.4964C82.748 13.267 82.6473 13.8828 82.1833 14.5099C81.9673 14.7321 81.7531 14.9067 81.5033 15.0928C81.4761 15.0382 81.4489 14.9836 81.421 14.9273C81.3655 14.8169 81.3655 14.8169 81.309 14.7042C81.2731 14.6306 81.2371 14.5569 81.2001 14.4811C80.6251 13.4096 79.6339 12.8217 78.4918 12.4699C77.9781 12.348 77.4589 12.2598 76.9375 12.1784C78.1966 10.5642 80.2071 10.1017 81.9621 11.232Z" fill="#CEA260"/>
<path d="M66.9336 37.8245C67.331 37.8569 67.7283 37.8914 68.1254 37.9276C68.26 37.9396 68.3947 37.9511 68.5295 37.9621C69.6797 38.0559 70.743 38.2487 71.5965 39.0873C71.9817 39.5565 72.0419 39.8835 72.0215 40.4656C72.0214 40.5346 72.0213 40.6037 72.0212 40.6749C72.015 41.0373 71.9962 41.2079 71.7908 41.516C71.7572 41.4087 71.7572 41.4087 71.7229 41.2993C71.5354 40.7382 71.3865 40.3442 70.9165 39.9616C70.868 39.9172 70.8194 39.8728 70.7694 39.8271C70.3639 39.4598 69.9635 39.2126 69.4654 38.9902C69.3949 38.9577 69.3243 38.9252 69.2516 38.8917C68.6812 38.6334 68.0997 38.4085 67.5081 38.2036C67.0406 38.0385 67.0406 38.0385 66.9336 37.8245Z" fill="#FBF3F2"/>
<path d="M65.7676 44.1389C65.9174 44.234 66.0671 44.3291 66.2169 44.4243C66.3643 44.5178 66.3643 44.5178 66.5148 44.6133C66.7269 44.749 66.9381 44.8861 67.1485 45.0246C69.2748 46.4238 71.4816 47.5074 73.9277 48.219C73.9277 48.251 73.9277 48.2831 73.9277 48.3161C73.2264 48.2562 72.5688 48.1147 71.8877 47.9397C71.7878 47.9148 71.6878 47.8899 71.5849 47.8642C70.9959 47.7151 70.4215 47.5443 69.8477 47.3447C70.1286 47.2644 70.3224 47.2475 70.6248 47.2475C70.5701 47.2222 70.5155 47.1968 70.4591 47.1707C69.3533 46.656 68.2681 46.1329 67.2247 45.4989C67.1629 45.4625 67.1011 45.426 67.0374 45.3884C66.8458 45.2752 66.6557 45.1597 66.4658 45.0436C66.407 45.0089 66.3481 44.9743 66.2875 44.9386C66.012 44.7658 65.8795 44.6707 65.7786 44.3556C65.775 44.2841 65.7713 44.2126 65.7676 44.1389Z" fill="#CDA46D"/>
<path d="M59.3563 8.58398C59.3563 8.97413 59.162 9.14658 58.9252 9.434C58.498 9.96599 58.1411 10.5166 57.8149 11.1157C57.5999 11.4968 57.4124 11.6879 57.0248 11.8869C56.8515 12.0879 56.8515 12.0879 56.7334 12.2755C56.6692 12.2434 56.6051 12.2114 56.5391 12.1783C57.3942 10.9073 58.3103 9.70482 59.3563 8.58398Z" fill="#B08155"/>
<path d="M70.0419 46.8589C70.4701 46.9216 70.8315 47.0844 71.2198 47.2657C72.0976 47.6643 73.0047 47.945 73.9277 48.2189C73.9277 48.251 73.9277 48.283 73.9277 48.3161C73.2264 48.2562 72.5688 48.1146 71.8877 47.9396C71.7878 47.9147 71.6878 47.8898 71.5849 47.8641C70.9959 47.715 70.4215 47.5443 69.8477 47.3446C70.1286 47.2643 70.3224 47.2475 70.6248 47.2475C70.4325 47.1513 70.2401 47.0551 70.0419 46.956C70.0419 46.924 70.0419 46.8919 70.0419 46.8589Z" fill="#BA8F66"/>
<path d="M52.75 32.676C53.0573 32.8297 53.0924 33.1442 53.1993 33.4532C53.4444 34.1389 53.7344 34.7924 54.0575 35.4448C54.3043 35.9497 54.3043 35.9497 54.3043 36.2704C54.2081 36.2063 54.112 36.1421 54.0129 36.0761C53.9808 36.1723 53.9488 36.2684 53.9157 36.3675C53.5993 35.6205 53.3497 34.8605 53.1143 34.0846C53.079 33.9702 53.0437 33.8557 53.0073 33.7378C52.75 32.8963 52.75 32.8963 52.75 32.676Z" fill="#CAA46A"/>
<path d="M58.0928 19.5615C58.1569 19.6577 58.221 19.7539 58.2871 19.853C58.3512 19.853 58.4153 19.853 58.4814 19.853C58.4174 20.357 58.3174 20.8414 58.196 21.3344C58.0425 21.9707 57.9074 22.6068 57.8013 23.253C57.7693 23.253 57.7372 23.253 57.7042 23.253C57.6386 21.9804 57.8342 20.8048 58.0928 19.5615Z" fill="#B0835D"/>
<path d="M100.642 31.4131C100.674 31.4131 100.706 31.4131 100.739 31.4131C100.775 32.133 100.639 32.798 100.496 33.5017C100.473 33.6187 100.45 33.7356 100.426 33.8561C100.369 34.1429 100.311 34.4295 100.253 34.716C100.221 34.6519 100.189 34.5878 100.156 34.5217C99.9638 34.5698 99.9638 34.5698 99.7676 34.6189C99.9196 34.0441 100.081 33.4739 100.259 32.9067C100.414 32.4119 100.539 31.9208 100.642 31.4131Z" fill="#B18762"/>
<path d="M56.2471 23.1558C56.2792 23.1558 56.3113 23.1558 56.3443 23.1558C56.3467 23.2427 56.3492 23.3296 56.3517 23.4192C56.3978 25.0486 56.4456 26.6769 56.5386 28.3044C56.4745 28.3044 56.4103 28.3044 56.3443 28.3044C56.3384 28.1875 56.3325 28.0705 56.3265 27.95C56.3183 27.7969 56.31 27.6439 56.3018 27.4908C56.2961 27.3751 56.2961 27.3751 56.2902 27.2571C56.2774 26.8447 56.2774 26.8447 56.15 26.4587C56.1405 26.261 56.1373 26.0631 56.1371 25.8652C56.137 25.7457 56.1368 25.6263 56.1367 25.5032C56.1371 25.3777 56.1375 25.2522 56.1379 25.1229C56.1375 24.999 56.1371 24.875 56.1367 24.7473C56.1368 24.6273 56.137 24.5073 56.1371 24.3837C56.1372 24.2741 56.1373 24.1644 56.1374 24.0514C56.1497 23.745 56.1899 23.4567 56.2471 23.1558Z" fill="#CBA974"/>
<path d="M86.5559 36.2703C86.5879 36.2703 86.62 36.2703 86.653 36.2703C86.6589 36.378 86.6648 36.4857 86.6708 36.5966C86.679 36.7388 86.6873 36.881 86.6955 37.0231C86.6993 37.094 86.7031 37.1649 86.7071 37.2379C86.7252 37.6216 86.7252 37.6216 86.7994 37.9969C86.8689 38.3106 86.8651 38.6231 86.867 38.9429C86.8676 39.0136 86.8681 39.0843 86.8687 39.1571C86.8696 39.3066 86.8703 39.4561 86.8706 39.6056C86.8716 39.8318 86.8746 40.0579 86.8776 40.2841C86.8829 41.0355 86.8602 41.6897 86.5559 42.3904C86.4425 42.0003 86.4879 41.7065 86.5498 41.3036C86.6315 40.7228 86.6723 40.1536 86.6712 39.5671C86.6713 39.5002 86.6713 39.4332 86.6714 39.3642C86.6682 39.0601 86.6489 38.769 86.6037 38.4682C86.5437 38.0265 86.5454 37.5956 86.5498 37.1506C86.5504 37.0232 86.5504 37.0232 86.5511 36.8932C86.5522 36.6855 86.554 36.4779 86.5559 36.2703Z" fill="#903028"/>
<path d="M88.8867 7.32129C89.5037 7.41517 90.0021 7.73114 90.5442 8.02559C90.65 8.08131 90.7558 8.13704 90.8647 8.19445C90.9665 8.24943 91.0682 8.3044 91.173 8.36104C91.2656 8.41079 91.3581 8.46053 91.4535 8.51178C91.7309 8.69958 91.8939 8.89909 92.0925 9.16704C92.2526 9.33075 92.414 9.49315 92.5782 9.65276C92.3108 9.52495 92.0678 9.3833 91.8238 9.21523C91.7541 9.16768 91.6843 9.12012 91.6124 9.07113C91.5384 9.02063 91.4644 8.97013 91.3882 8.9181C90.5785 8.37079 89.7465 7.88227 88.8867 7.41843C88.8867 7.38638 88.8867 7.35432 88.8867 7.32129Z" fill="#CDA672"/>
<path d="M100.447 43.7505C100.286 44.1459 100.007 44.4284 99.7181 44.7341C99.6667 44.7891 99.6154 44.8442 99.5624 44.9009C99.0913 45.4031 98.607 45.8914 98.1152 46.3734C98.1152 45.9909 98.2304 45.9291 98.4917 45.657C98.9077 45.2106 99.2797 44.7453 99.6427 44.256C100.022 43.7505 100.022 43.7505 100.447 43.7505Z" fill="#B28252"/>
<path d="M59.9375 45.7905C60.1318 45.7905 60.1318 45.7905 60.3542 46.0061C60.4411 46.0952 60.528 46.1844 60.6175 46.2763C61.1784 46.7594 61.7565 47.2163 62.3661 47.6363C62.3341 47.7645 62.302 47.8927 62.269 48.0249C61.5309 47.5038 60.8833 46.8966 60.2289 46.2763C60.1751 46.2267 60.1213 46.1772 60.0659 46.1262C59.9375 45.9848 59.9375 45.9848 59.9375 45.7905Z" fill="#B38252"/>
<path d="M61.6856 13.2471C61.7818 13.2791 61.8779 13.3112 61.977 13.3442C61.9392 13.4022 61.9014 13.4602 61.8624 13.5199C61.1836 14.5725 60.5566 15.6561 59.937 16.7443C59.8398 16.4528 59.8398 16.4528 59.9041 16.2719C59.9397 16.2048 59.9754 16.1376 60.0121 16.0684C60.0518 15.993 60.0915 15.9175 60.1324 15.8397C60.1761 15.7596 60.2198 15.6794 60.2648 15.5968C60.3087 15.5149 60.3525 15.433 60.3976 15.3487C60.7908 14.6238 61.2243 13.9301 61.6856 13.2471Z" fill="#CDA672"/>
<path d="M62.3655 5.76685C62.3655 6.05828 62.3655 6.05828 62.2179 6.2131C62.1076 6.30477 62.1076 6.30477 61.9951 6.39829C61.4419 6.87786 60.9267 7.39107 60.4105 7.9101C60.3263 7.99463 60.2422 8.07915 60.1555 8.16624C59.9529 8.37008 59.7505 8.5741 59.5483 8.77833C59.5163 8.68216 59.4842 8.58598 59.4512 8.48689C59.7539 8.17843 60.0578 7.87114 60.3619 7.56402C60.4464 7.47787 60.531 7.39171 60.618 7.30294C61.1702 6.74669 61.7418 6.24162 62.3655 5.76685Z" fill="#CBA66D"/>
<path d="M97.8257 38.3103C97.8578 38.3744 97.8898 38.4385 97.9228 38.5046C97.8598 38.669 97.8598 38.669 97.7547 38.8643C97.7167 38.9356 97.6787 39.0068 97.6396 39.0802C97.5784 39.192 97.5784 39.192 97.5161 39.306C97.4577 39.4155 97.4577 39.4155 97.3982 39.5273C96.7349 40.7594 96.7349 40.7594 96.2714 40.9332C96.1632 40.9873 96.1632 40.9873 96.0528 41.0425C95.9967 41.0705 95.9406 41.0986 95.8828 41.1275C96.1737 40.6826 96.4824 40.2546 96.7996 39.8282C97.1648 39.3344 97.5126 38.8394 97.8257 38.3103Z" fill="#CFA86F"/>
<path d="M66.6419 5.57251C66.6419 5.86394 66.6419 5.86394 66.4488 6.09322C66.3605 6.18123 66.2722 6.26924 66.1812 6.35991C66.1343 6.40694 66.0873 6.45396 66.0389 6.50241C65.9394 6.60164 65.8396 6.7005 65.7395 6.79903C65.5859 6.95033 65.4336 7.10288 65.2815 7.25565C64.5318 8.00113 64.5318 8.00113 64.3105 8.00113C64.2463 8.12936 64.1822 8.25759 64.1162 8.3897C64.052 8.35765 63.9879 8.32559 63.9219 8.29256C64.4891 7.66163 65.0654 7.04179 65.6644 6.44074C65.7171 6.38756 65.7699 6.33438 65.8242 6.27958C66.0832 6.02155 66.3416 5.78165 66.6419 5.57251Z" fill="#AF8159"/>
<path d="M87.2366 52.3962C87.2366 52.4604 87.2366 52.5245 87.2366 52.5905C87.3969 52.5905 87.5572 52.5905 87.7223 52.5905C87.4264 52.7878 87.2112 52.8581 86.8704 52.9491C86.7048 52.9936 86.7048 52.9936 86.5359 53.0389C86.4205 53.0692 86.3051 53.0996 86.1862 53.1309C86.072 53.1616 85.9577 53.1924 85.84 53.2241C85.3351 53.3585 84.839 53.4824 84.3223 53.562C84.5427 53.3416 84.6973 53.2884 84.9894 53.1855C85.0834 53.152 85.1775 53.1184 85.2744 53.0838C85.4222 53.032 85.4222 53.032 85.573 52.9791C85.7671 52.9105 85.9612 52.8417 86.1551 52.7727C86.2414 52.7424 86.3276 52.7121 86.4165 52.6808C86.6533 52.5955 86.6533 52.5955 86.867 52.482C87.0423 52.3962 87.0423 52.3962 87.2366 52.3962Z" fill="#CBB18C"/>
<path d="M104.917 18.687C105.23 19.1568 105.324 19.6997 105.469 20.2413C105.502 20.358 105.534 20.4747 105.568 20.595C105.598 20.7067 105.628 20.8184 105.659 20.9335C105.687 21.0359 105.714 21.1383 105.743 21.2439C105.791 21.5042 105.791 21.5042 105.694 21.7956C105.675 21.7438 105.656 21.692 105.636 21.6385C105.548 21.3995 105.46 21.1604 105.372 20.9213C105.342 20.8398 105.312 20.7583 105.281 20.6743C105.097 20.1731 104.911 19.6726 104.723 19.1727C104.787 19.1727 104.851 19.1727 104.917 19.1727C104.917 19.0124 104.917 18.8522 104.917 18.687Z" fill="#CBAE84"/>
<path d="M72.6639 0.812421C72.3606 0.94251 72.0569 1.07183 71.7532 1.201C71.6668 1.23807 71.5804 1.27513 71.4914 1.31332C71.4087 1.34839 71.3261 1.38345 71.2409 1.41957C71.1646 1.45213 71.0883 1.48469 71.0097 1.51824C70.8182 1.58958 70.8182 1.58958 70.6239 1.58958C70.6239 1.52546 70.6239 1.46135 70.6239 1.39529C70.4315 1.42735 70.2392 1.4594 70.041 1.49243C70.4493 1.22027 70.8834 1.12193 71.3525 0.988496C71.446 0.960758 71.5396 0.933021 71.6359 0.904443C71.7257 0.878709 71.8155 0.852975 71.908 0.826462C71.9901 0.80277 72.0722 0.779079 72.1568 0.75467C72.3725 0.715276 72.3725 0.715276 72.6639 0.812421Z" fill="#CCAC7D"/>
<path d="M71.9988 47.657C72.4073 47.7405 72.7956 47.8529 73.1915 47.9822C73.2981 48.0163 73.2981 48.0163 73.4068 48.0511C73.5801 48.1065 73.7531 48.1627 73.9262 48.219C73.9262 48.251 73.9262 48.2831 73.9262 48.3161C73.0625 48.2533 72.2386 48.0373 71.4004 47.8304C71.6918 47.6361 71.6918 47.6361 71.9988 47.657Z" fill="#B99A7E"/>
<path d="M52.75 32.676C53.0724 32.8372 53.1199 33.1964 53.2357 33.52C53.261 33.5888 53.2863 33.6576 53.3124 33.7285C53.4556 34.1202 53.5916 34.5139 53.7214 34.9104C53.6573 34.9104 53.5932 34.9104 53.5272 34.9104C53.4951 34.9745 53.463 35.0386 53.43 35.1046C53.3162 34.7364 53.2031 34.368 53.09 33.9996C53.0576 33.8947 53.0251 33.7897 52.9917 33.6816C52.961 33.5814 52.9304 33.4813 52.8988 33.378C52.8703 33.2855 52.8418 33.1929 52.8124 33.0975C52.75 32.8703 52.75 32.8703 52.75 32.676Z" fill="#CEB58F"/>
<path d="M57.9952 21.1157C58.0272 21.1157 58.0593 21.1157 58.0923 21.1157C58.0392 21.8387 57.9425 22.542 57.8009 23.2529C57.7688 23.2529 57.7368 23.2529 57.7037 23.2529C57.6958 23.0059 57.6901 22.7592 57.6855 22.5122C57.6831 22.4429 57.6806 22.3737 57.6781 22.3023C57.6716 21.8324 57.7469 21.5288 57.9952 21.1157Z" fill="#AC876B"/>
<path d="M102.099 30.3445C102.131 30.3445 102.163 30.3445 102.196 30.3445C102.199 30.6501 102.201 30.9557 102.202 31.2613C102.203 31.3485 102.204 31.4357 102.205 31.5256C102.205 31.6085 102.205 31.6915 102.206 31.777C102.206 31.8538 102.207 31.9306 102.207 32.0098C102.196 32.1902 102.196 32.1902 102.099 32.2874C102.061 32.4505 102.027 32.6146 101.996 32.7792C101.979 32.8685 101.962 32.9577 101.944 33.0497C101.924 33.1532 101.924 33.1532 101.905 33.2588C101.791 32.9152 101.818 32.6365 101.862 32.2798C101.875 32.1671 101.889 32.0544 101.903 31.9383C101.917 31.8211 101.932 31.7038 101.947 31.5831C101.962 31.4644 101.976 31.3456 101.991 31.2233C102.026 30.9303 102.062 30.6374 102.099 30.3445Z" fill="#CFAE7C"/>
<path d="M96.3672 5.96118C96.7818 6.18325 97.0935 6.46982 97.4176 6.80513C97.4663 6.85478 97.5151 6.90443 97.5654 6.95559C97.6845 7.07702 97.8031 7.19905 97.9215 7.32121C97.5257 7.32121 97.3272 7.11801 97.029 6.88406C96.9747 6.84236 96.9204 6.80066 96.8645 6.75769C96.7306 6.65472 96.5974 6.55089 96.4643 6.4469C96.4964 6.35073 96.5284 6.25456 96.5615 6.15547C96.4974 6.15547 96.4332 6.15547 96.3672 6.15547C96.3672 6.09136 96.3672 6.02724 96.3672 5.96118Z" fill="#AD7F51"/>
<path d="M76.8428 27.9158C76.8748 27.9158 76.9069 27.9158 76.9399 27.9158C76.9399 28.0761 76.9399 28.2363 76.9399 28.4015C76.8758 28.4015 76.8117 28.4015 76.7456 28.4015C76.7777 28.8503 76.8097 29.2991 76.8428 29.7615C76.7786 29.7615 76.7145 29.7615 76.6485 29.7615C76.4681 29.2204 76.4558 28.6134 76.691 28.0918C76.7411 28.0337 76.7912 27.9756 76.8428 27.9158Z" fill="#95473F"/>
<path d="M66.9336 37.8245C68.0396 37.9206 68.0396 37.9206 69.1679 38.0188C69.1679 38.0508 69.1679 38.0829 69.1679 38.1159C69.086 38.1218 69.0041 38.1277 68.9197 38.1337C68.8133 38.1419 68.7069 38.15 68.5972 38.1584C68.4913 38.1663 68.3853 38.1742 68.2762 38.1823C68.0073 38.1965 68.0073 38.1965 67.8079 38.3102C67.5977 38.2347 67.5977 38.2347 67.3586 38.122C67.2792 38.085 67.1998 38.0481 67.118 38.01C67.0572 37.9808 66.9963 37.9517 66.9336 37.9216C66.9336 37.8895 66.9336 37.8575 66.9336 37.8245Z" fill="#EDC0BB"/>
<path d="M59.9375 45.7905C60.1318 45.7905 60.1318 45.7905 60.3504 46.003C60.4826 46.1383 60.4826 46.1383 60.6175 46.2763C60.8085 46.4426 61.0039 46.602 61.2004 46.762C61.1042 46.9062 61.1042 46.9062 61.0061 47.0534C60.8274 46.8799 60.6494 46.7058 60.4718 46.5313C60.3953 46.4572 60.3953 46.4572 60.3174 46.3817C60.187 46.2531 60.0618 46.1193 59.9375 45.9848C59.9375 45.9207 59.9375 45.8566 59.9375 45.7905Z" fill="#B78E63"/>
<path d="M63.6283 15.0928C63.7565 15.1248 63.8848 15.1569 64.0169 15.1899C63.7604 15.4464 63.504 15.7028 63.2397 15.9671C63.2077 15.8709 63.1756 15.7747 63.1426 15.6756C63.279 15.4557 63.4531 15.285 63.6283 15.0928Z" fill="#A03A32"/>
<path d="M92.676 12.2756C92.7401 12.2756 92.8042 12.2756 92.8703 12.2756C92.8259 12.7305 92.6574 12.9198 92.3299 13.2289C92.2095 13.344 92.2095 13.344 92.0867 13.4615C91.9937 13.5477 91.9937 13.5477 91.8989 13.6357C91.8027 13.6036 91.7065 13.5715 91.6074 13.5385C91.6601 13.4962 91.7129 13.4539 91.7672 13.4103C92.1807 13.066 92.4755 12.7894 92.676 12.2756Z" fill="#697352"/>
<path d="M84.3226 45.9849C84.3546 46.049 84.3867 46.1131 84.4197 46.1792C84.6121 46.1792 84.8044 46.1792 85.0026 46.1792C84.7528 46.429 84.5552 46.4513 84.2133 46.5313C84.1069 46.5566 84.0004 46.5819 83.8908 46.608C83.8089 46.6267 83.727 46.6455 83.6426 46.6649C83.8692 46.4382 84.0959 46.2115 84.3226 45.9849Z" fill="#95443A"/>
<path d="M86.6536 40.4475C86.6857 40.4475 86.7177 40.4475 86.7508 40.4475C86.8634 41.1732 86.8525 41.7131 86.5565 42.3904C86.4349 41.9805 86.4912 41.617 86.5504 41.2004C86.5601 41.128 86.5698 41.0556 86.5798 40.981C86.6038 40.8031 86.6286 40.6253 86.6536 40.4475Z" fill="#9D4A42"/>
<path d="M94.7156 42.2932C94.7476 42.3894 94.7797 42.4856 94.8127 42.5846C94.7084 42.6968 94.603 42.808 94.497 42.9186C94.4091 43.0116 94.4091 43.0116 94.3194 43.1064C94.123 43.2729 93.9955 43.3223 93.7441 43.3618C94.0557 42.992 94.3666 42.6288 94.7156 42.2932Z" fill="#D1AF7A"/>
<path d="M70.6243 1.39551C70.6243 1.49168 70.6243 1.58785 70.6243 1.68694C70.3511 1.83873 70.3511 1.83873 70.0414 1.97838C69.9453 1.94632 69.8491 1.91426 69.75 1.88123C69.9882 1.51201 69.9882 1.51201 70.2418 1.41979C70.43 1.39551 70.43 1.39551 70.6243 1.39551Z" fill="#C8A166"/>
<path d="M70.9141 47.3447C71.5698 47.4176 71.5698 47.4176 71.7884 47.6362C71.6912 47.7333 71.6912 47.7333 71.4059 47.7454C71.1084 47.7333 71.1084 47.7333 70.9141 47.6362C70.9141 47.54 70.9141 47.4438 70.9141 47.3447Z" fill="#B08055"/>
<path d="M77.9089 11.207C77.9731 11.2391 78.0372 11.2711 78.1032 11.3042C78.0296 11.3622 78.0296 11.3622 77.9545 11.4214C77.8914 11.4729 77.8283 11.5244 77.7632 11.5774C77.7001 11.6281 77.637 11.6788 77.572 11.7311C77.3897 11.8863 77.3897 11.8863 77.4232 12.1785C77.2629 12.1785 77.1026 12.1785 76.9375 12.1785C77.535 11.4516 77.535 11.4516 77.9089 11.207Z" fill="#C5A574"/>
<path d="M85.0977 5.66983C85.8193 5.64208 85.8193 5.64208 86.1662 5.86412C86.1021 5.86412 86.038 5.86412 85.972 5.86412C85.972 5.92824 85.972 5.99235 85.972 6.05841C85.4339 5.99863 85.4339 5.99863 85.2069 5.80948C85.1709 5.7634 85.1348 5.71731 85.0977 5.66983Z" fill="#A97D55"/>
<path d="M87.7221 52.2323C87.9163 52.2991 87.9163 52.2991 88.1106 52.4934C87.8234 52.637 87.5528 52.5964 87.2363 52.5905C87.3439 52.2677 87.3797 52.1788 87.7221 52.2323Z" fill="#C8A167"/>
<path d="M63.6302 8.68115C63.6302 9.05064 63.5196 9.14521 63.2902 9.42795C63.227 9.50647 63.1639 9.58498 63.0989 9.66588C63.0498 9.72561 63.0007 9.78535 62.9501 9.84689C62.886 9.81483 62.8219 9.78277 62.7559 9.74974C62.8833 9.5898 63.0108 9.42993 63.1384 9.27009C63.2094 9.18106 63.2804 9.09202 63.3535 9.00029C63.533 8.7783 63.533 8.7783 63.6302 8.68115Z" fill="#AE815C"/>
<path d="M97.8245 38.3103C97.8566 38.3744 97.8887 38.4385 97.9217 38.5046C97.8249 38.7361 97.8249 38.7361 97.6849 39.0025C97.6389 39.0909 97.593 39.1793 97.5456 39.2704C97.5094 39.3382 97.4733 39.4061 97.436 39.476C97.3398 39.444 97.2436 39.4119 97.1445 39.3789C97.3689 39.0263 97.5933 38.6736 97.8245 38.3103Z" fill="#D2AF7C"/>
<path d="M78.7832 17.1328C78.9506 17.384 79.021 17.5251 79.0929 17.8068C79.1103 17.8717 79.1277 17.9367 79.1456 18.0037C79.175 18.2254 79.1414 18.3782 79.0746 18.59C78.8542 18.2593 78.8448 18.0882 78.8196 17.6975C78.8124 17.5919 78.8051 17.4863 78.7976 17.3776C78.7929 17.2968 78.7881 17.216 78.7832 17.1328Z" fill="#A5564F"/>
<path d="M71.5957 15.287C72.0738 15.2708 72.4218 15.2629 72.8586 15.4813C72.8265 15.5454 72.7945 15.6095 72.7614 15.6756C72.1844 15.5313 72.1844 15.5313 71.5957 15.3842C71.5957 15.3521 71.5957 15.32 71.5957 15.287Z" fill="#A04C44"/>
<path d="M72.6647 0.812527C72.5117 0.883176 72.3577 0.951561 72.2033 1.01896C72.1176 1.05728 72.032 1.0956 71.9437 1.13508C71.6933 1.20111 71.6933 1.20111 71.4671 1.11534C71.4135 1.07953 71.3599 1.04372 71.3047 1.00682C71.4764 0.955211 71.6485 0.904849 71.8208 0.855028C71.9166 0.826852 72.0124 0.798676 72.1111 0.769647C72.3733 0.715382 72.3733 0.715382 72.6647 0.812527Z" fill="#CDB898"/>
<path d="M91.5098 8.87549C91.8983 8.87549 91.8983 8.87549 92.1533 9.10014C92.3841 9.36121 92.3841 9.36121 92.5784 9.65265C92.1895 9.48154 91.8398 9.23868 91.5098 8.97263C91.5098 8.94058 91.5098 8.90852 91.5098 8.87549Z" fill="#CFAE7C"/>
<path d="M84.2254 42.7791C84.2254 43.1379 84.1009 43.3404 83.934 43.6534C83.902 43.5892 83.8699 43.5251 83.8369 43.4591C83.7728 43.427 83.7086 43.3949 83.6426 43.3619C83.8349 43.1696 84.0273 42.9772 84.2254 42.7791Z" fill="#925048"/>
<path d="M61.2982 11.7898C61.3954 12.1784 61.3954 12.1784 61.2072 12.4941C61.141 12.5823 61.0749 12.6704 61.0068 12.7612C60.9427 12.7292 60.8786 12.6971 60.8125 12.6641C60.9728 12.3756 61.1331 12.0871 61.2982 11.7898Z" fill="#B18560"/>
<path d="M87.2362 52.3962C87.2362 52.4604 87.2362 52.5245 87.2362 52.5905C87.3965 52.5905 87.5568 52.5905 87.722 52.5905C87.4305 52.7848 87.4305 52.7848 87.0419 52.7848C87.0419 52.7207 87.0419 52.6566 87.0419 52.5905C86.9778 52.5585 86.9137 52.5264 86.8477 52.4934C87.0419 52.3962 87.0419 52.3962 87.2362 52.3962Z" fill="#D1B081"/>
<path d="M98.2129 32.1902C98.3091 32.1902 98.4052 32.1902 98.5043 32.1902C98.4723 32.4146 98.4402 32.639 98.4072 32.8702C98.3431 32.8702 98.2789 32.8702 98.2129 32.8702C98.2129 32.6458 98.2129 32.4214 98.2129 32.1902Z" fill="#A25A52"/>
</svg>
